<svg width="100" height="31" viewBox="0 0 100 31" fill="none" xmlns="http://www.w3.org/2000/svg">
<rect x="1.5" y="1.5" width="97" height="28" rx="13.5" fill="black" stroke="#00FF0A" stroke-width="3"/>
<path d="M38.0882 22H33.8503V8.90909H38.2225C39.5051 8.90909 40.6067 9.17116 41.5272 9.69531C42.4476 10.2152 43.1529 10.9631 43.6429 11.9389C44.1373 12.9105 44.3844 14.076 44.3844 15.4354C44.3844 16.799 44.1351 17.9709 43.6365 18.951C43.1422 19.9311 42.4263 20.6854 41.4888 21.2138C40.5513 21.7379 39.4178 22 38.0882 22ZM35.8255 20.2741H37.9796C38.9767 20.2741 39.8056 20.0866 40.4661 19.7116C41.1266 19.3324 41.6209 18.7848 41.949 18.0689C42.2772 17.3487 42.4412 16.4709 42.4412 15.4354C42.4412 14.4084 42.2772 13.5369 41.949 12.821C41.6252 12.1051 41.1415 11.5618 40.498 11.1911C39.8546 10.8203 39.0556 10.6349 38.101 10.6349H35.8255V20.2741ZM46.8406 22V8.90909H51.5067C52.521 8.90909 53.3626 9.08381 54.0316 9.43324C54.7049 9.78267 55.2077 10.2663 55.5401 10.8842C55.8725 11.4979 56.0387 12.2074 56.0387 13.0128C56.0387 13.8139 55.8704 14.5192 55.5337 15.1286C55.2013 15.7337 54.6985 16.2045 54.0252 16.5412C53.3562 16.8778 52.5146 17.0462 51.5004 17.0462H47.9656V15.3459H51.3214C51.9606 15.3459 52.4805 15.2543 52.881 15.071C53.2859 14.8878 53.582 14.6214 53.7695 14.272C53.957 13.9226 54.0508 13.5028 54.0508 13.0128C54.0508 12.5185 53.9549 12.0902 53.7631 11.728C53.5756 11.3658 53.2795 11.0888 52.8746 10.897C52.4741 10.701 51.9478 10.603 51.2958 10.603H48.8157V22H46.8406ZM53.3029 16.0938L56.5373 22H54.2873L51.1168 16.0938H53.3029ZM65.582 12.348C65.5138 11.7429 65.2326 11.2741 64.7383 10.9418C64.244 10.6051 63.6218 10.4368 62.8718 10.4368C62.3349 10.4368 61.8704 10.522 61.4783 10.6925C61.0863 10.8587 60.7816 11.0888 60.5643 11.3828C60.3512 11.6726 60.2447 12.0028 60.2447 12.3736C60.2447 12.6847 60.3171 12.9531 60.462 13.179C60.6112 13.4048 60.805 13.5945 61.0437 13.7479C61.2866 13.897 61.5465 14.0227 61.8235 14.125C62.1005 14.223 62.3668 14.304 62.6225 14.3679L63.9009 14.7003C64.3185 14.8026 64.7468 14.9411 65.1857 15.1158C65.6246 15.2905 66.0316 15.5206 66.4066 15.8061C66.7816 16.0916 67.0842 16.4453 67.3143 16.8672C67.5487 17.2891 67.6658 17.794 67.6658 18.3821C67.6658 19.1236 67.4741 19.782 67.0906 20.3572C66.7113 20.9325 66.1594 21.3864 65.435 21.7188C64.7148 22.0511 63.8434 22.2173 62.8207 22.2173C61.8406 22.2173 60.9925 22.0618 60.2766 21.7507C59.5607 21.4396 59.0004 20.9986 58.5955 20.4276C58.1907 19.8523 57.967 19.1705 57.9244 18.3821H59.9059C59.9442 18.8551 60.0977 19.2493 60.3661 19.5646C60.6388 19.8757 60.9862 20.108 61.408 20.2614C61.8342 20.4105 62.3008 20.4851 62.8079 20.4851C63.3661 20.4851 63.8626 20.3977 64.2972 20.223C64.7362 20.044 65.0813 19.7969 65.3327 19.4815C65.5842 19.1619 65.7099 18.7891 65.7099 18.3629C65.7099 17.9751 65.5991 17.6577 65.3775 17.4105C65.1602 17.1634 64.864 16.9588 64.489 16.7969C64.1183 16.6349 63.6985 16.4922 63.2298 16.3686L61.6829 15.9467C60.6346 15.6612 59.8036 15.2415 59.19 14.6875C58.5806 14.1335 58.2759 13.4006 58.2759 12.4886C58.2759 11.7344 58.4805 11.076 58.8896 10.5135C59.2987 9.95099 59.8526 9.5142 60.5515 9.20312C61.2504 8.88778 62.0387 8.73011 62.9165 8.73011C63.8029 8.73011 64.5849 8.88565 65.2624 9.19673C65.9442 9.50781 66.4812 9.93608 66.8732 10.4815C67.2653 11.0227 67.4698 11.6449 67.4869 12.348H65.582Z" fill="#00FF0A"/>
</svg>
