<svg width="100" height="31" viewBox="0 0 100 31" fill="none" xmlns="http://www.w3.org/2000/svg">
<rect x="1.5" y="1.5" width="97" height="28" rx="13.5" fill="black" stroke="#00FF0A" stroke-width="3"/>
<path d="M31.2083 13.1847H28.9924C28.9071 12.7112 28.7485 12.2945 28.5165 11.9347C28.2845 11.5748 28.0004 11.2694 27.6642 11.0185C27.3281 10.7675 26.9516 10.5781 26.535 10.4503C26.123 10.3224 25.6851 10.2585 25.2211 10.2585C24.383 10.2585 23.6325 10.4692 22.9696 10.8906C22.3115 11.312 21.7907 11.9299 21.4071 12.7443C21.0283 13.5587 20.839 14.553 20.839 15.7273C20.839 16.911 21.0283 17.91 21.4071 18.7244C21.7907 19.5388 22.3139 20.1544 22.9767 20.571C23.6396 20.9877 24.3854 21.196 25.214 21.196C25.6732 21.196 26.1088 21.1345 26.5208 21.0114C26.9374 20.8835 27.3139 20.6965 27.65 20.4503C27.9862 20.2041 28.2703 19.9034 28.5023 19.5483C28.7391 19.1884 28.9024 18.7765 28.9924 18.3125L31.2083 18.3196C31.0899 19.0346 30.8603 19.6927 30.5194 20.294C30.1832 20.8906 29.7499 21.4067 29.2196 21.8423C28.6941 22.2732 28.0927 22.607 27.4157 22.8438C26.7386 23.0805 25.9999 23.1989 25.1998 23.1989C23.9403 23.1989 22.8181 22.9006 21.8333 22.304C20.8484 21.7027 20.0719 20.8433 19.5037 19.7259C18.9403 18.6084 18.6586 17.2756 18.6586 15.7273C18.6586 14.1742 18.9426 12.8414 19.5108 11.7287C20.079 10.6113 20.8555 9.75426 21.8404 9.15767C22.8252 8.55634 23.945 8.25568 25.1998 8.25568C25.9715 8.25568 26.6912 8.36695 27.3588 8.58949C28.0312 8.80729 28.6349 9.12926 29.1699 9.5554C29.705 9.9768 30.1477 10.4929 30.498 11.1037C30.8484 11.7098 31.0852 12.4034 31.2083 13.1847ZM33.8343 23V8.45455H36.0289V21.1108H42.6199V23H33.8343ZM45.1234 23V8.45455H54.2427V10.3438H47.318V14.7756H53.7669V16.6577H47.318V21.1108H54.3279V23H45.1234ZM58.4029 23H56.0733L61.3077 8.45455H63.8432L69.0776 23H66.748L62.6358 11.0966H62.5222L58.4029 23ZM58.7935 17.304H66.3503V19.1506H58.7935V17.304ZM71.1781 23V8.45455H76.3627C77.4896 8.45455 78.4248 8.64867 79.1681 9.03693C79.9163 9.42519 80.475 9.96259 80.8443 10.6491C81.2136 11.331 81.3983 12.1193 81.3983 13.0142C81.3983 13.9044 81.2112 14.688 80.8372 15.3651C80.4679 16.0374 79.9092 16.5606 79.161 16.9347C78.4177 17.3087 77.4825 17.4957 76.3556 17.4957H72.4281V15.6065H76.1568C76.867 15.6065 77.4447 15.5047 77.8897 15.3011C78.3395 15.0975 78.6686 14.8016 78.877 14.4134C79.0853 14.0251 79.1895 13.5587 79.1895 13.0142C79.1895 12.465 79.0829 11.9891 78.8699 11.5866C78.6615 11.1842 78.3324 10.8764 77.8826 10.6634C77.4376 10.4455 76.8528 10.3366 76.1284 10.3366H73.3727V23H71.1781ZM78.3585 16.4375L81.9522 23H79.4522L75.9295 16.4375H78.3585Z" fill="#00FF0A"/>
</svg>
