<svg width="100" height="31" viewBox="0 0 100 31" fill="none" xmlns="http://www.w3.org/2000/svg">
<rect x="1.5" y="1.5" width="97" height="28" rx="13.5" fill="black" stroke="#FF0000" stroke-width="3"/>
<path d="M7.91477 22V8.90909H12.581C13.5952 8.90909 14.4368 9.08381 15.1058 9.43324C15.7791 9.78267 16.282 10.2663 16.6143 10.8842C16.9467 11.4979 17.1129 12.2074 17.1129 13.0128C17.1129 13.8139 16.9446 14.5192 16.608 15.1286C16.2756 15.7337 15.7727 16.2045 15.0994 16.5412C14.4304 16.8778 13.5888 17.0462 12.5746 17.0462H9.03977V15.3459H12.3956C13.0348 15.3459 13.5547 15.2543 13.9553 15.071C14.3601 14.8878 14.6562 14.6214 14.8438 14.272C15.0312 13.9226 15.125 13.5028 15.125 13.0128C15.125 12.5185 15.0291 12.0902 14.8374 11.728C14.6499 11.3658 14.3537 11.0888 13.9489 10.897C13.5483 10.701 13.022 10.603 12.37 10.603H9.88991V22H7.91477ZM14.3771 16.0938L17.6115 22H15.3615L12.1911 16.0938H14.3771ZM19.5163 22V8.90909H27.7237V10.6094H21.4915V14.598H27.2955V16.2919H21.4915V20.2997H27.8004V22H19.5163ZM34.6 22H30.362V8.90909H34.7342C36.0169 8.90909 37.1184 9.17116 38.0389 9.69531C38.9593 10.2152 39.6646 10.9631 40.1547 11.9389C40.649 12.9105 40.8961 14.076 40.8961 15.4354C40.8961 16.799 40.6468 17.9709 40.1483 18.951C39.6539 19.9311 38.938 20.6854 38.0005 21.2138C37.063 21.7379 35.9295 22 34.6 22ZM32.3372 20.2741H34.4913C35.4885 20.2741 36.3173 20.0866 36.9778 19.7116C37.6383 19.3324 38.1326 18.7848 38.4608 18.0689C38.7889 17.3487 38.9529 16.4709 38.9529 15.4354C38.9529 14.4084 38.7889 13.5369 38.4608 12.821C38.1369 12.1051 37.6532 11.5618 37.0098 11.1911C36.3663 10.8203 35.5673 10.6349 34.6127 10.6349H32.3372V20.2741ZM48.1159 22V8.90909H56.2338V10.6094H50.0911V14.598H55.6522V16.2919H50.0911V22H48.1159ZM58.6628 22V8.90909H60.638V20.2997H66.5698V22H58.6628ZM70.5968 22H68.5002L73.2111 8.90909H75.4931L80.204 22H78.1074L74.4064 11.2869H74.3042L70.5968 22ZM70.9483 16.8736H77.7495V18.5355H70.9483V16.8736ZM90.3386 13.0447C90.215 12.657 90.0488 12.3097 89.84 12.0028C89.6355 11.6918 89.3904 11.4276 89.1049 11.2102C88.8194 10.9886 88.4934 10.8203 88.127 10.7053C87.7647 10.5902 87.3663 10.5327 86.9316 10.5327C86.1944 10.5327 85.5297 10.7223 84.9373 11.1016C84.345 11.4808 83.8762 12.0369 83.5311 12.7699C83.1902 13.4986 83.0197 14.3913 83.0197 15.4482C83.0197 16.5092 83.1923 17.4062 83.5375 18.1392C83.8826 18.8722 84.3556 19.4283 84.9565 19.8075C85.5574 20.1868 86.2413 20.3764 87.0083 20.3764C87.72 20.3764 88.34 20.2315 88.8684 19.9418C89.4011 19.652 89.8123 19.2429 90.1021 18.7145C90.3961 18.1818 90.5431 17.5554 90.5431 16.8352L91.0545 16.9311H87.3088V15.3011H92.4544V16.7905C92.4544 17.8899 92.22 18.8445 91.7512 19.6541C91.2868 20.4595 90.6433 21.0817 89.8208 21.5206C89.0027 21.9595 88.0652 22.179 87.0083 22.179C85.8237 22.179 84.7839 21.9062 83.889 21.3608C82.9984 20.8153 82.3038 20.0419 81.8052 19.0405C81.3066 18.0348 81.0574 16.8416 81.0574 15.4609C81.0574 14.4169 81.2022 13.4794 81.492 12.6484C81.7818 11.8175 82.1887 11.1122 82.7129 10.5327C83.2413 9.94886 83.8613 9.50355 84.573 9.19673C85.2889 8.88565 86.0708 8.73011 86.9189 8.73011C87.6262 8.73011 88.2846 8.83452 88.894 9.04332C89.5076 9.25213 90.0531 9.54829 90.5304 9.93182C91.0119 10.3153 91.4103 10.7713 91.7257 11.2997C92.041 11.8239 92.2541 12.4055 92.3649 13.0447H90.3386Z" fill="#FF0000"/>
</svg>
