<svg width="100" height="31" viewBox="0 0 100 31" fill="none" xmlns="http://www.w3.org/2000/svg">
<rect x="1.5" y="1.5" width="97" height="28" rx="13.5" fill="black" stroke="#B78400" stroke-width="3"/>
<path d="M32.0783 7.45455L36.1266 19.3011H36.29L40.3382 7.45455H42.7104L37.476 22H34.9405L29.7061 7.45455H32.0783ZM52.7441 11.2756C52.6684 10.6032 52.3559 10.0824 51.8066 9.71307C51.2574 9.33902 50.5661 9.15199 49.7328 9.15199C49.1362 9.15199 48.6201 9.24669 48.1845 9.43608C47.7489 9.62074 47.4103 9.87642 47.1689 10.2031C46.9321 10.5251 46.8137 10.892 46.8137 11.304C46.8137 11.6496 46.8942 11.9479 47.0552 12.1989C47.2209 12.4498 47.4364 12.6605 47.7015 12.831C47.9714 12.9967 48.2602 13.1364 48.568 13.25C48.8758 13.3589 49.1717 13.4489 49.4558 13.5199L50.8762 13.8892C51.3403 14.0028 51.8161 14.1567 52.3038 14.3509C52.7915 14.545 53.2437 14.8007 53.6603 15.1179C54.077 15.4351 54.4132 15.8281 54.6689 16.2969C54.9293 16.7656 55.0595 17.3267 55.0595 17.9801C55.0595 18.804 54.8464 19.5355 54.4203 20.1747C53.9989 20.8139 53.3857 21.3182 52.5808 21.6875C51.7806 22.0568 50.8123 22.2415 49.676 22.2415C48.5869 22.2415 47.6447 22.0687 46.8493 21.723C46.0538 21.3774 45.4312 20.8873 44.9814 20.2528C44.5315 19.6136 44.283 18.8561 44.2356 17.9801H46.4373C46.4799 18.5057 46.6504 18.9437 46.9487 19.294C47.2517 19.6397 47.6376 19.8977 48.1064 20.0682C48.5798 20.2339 49.0983 20.3168 49.6618 20.3168C50.282 20.3168 50.8336 20.2197 51.3166 20.0256C51.8043 19.8267 52.1878 19.5521 52.4672 19.2017C52.7465 18.8466 52.8862 18.4323 52.8862 17.9588C52.8862 17.5279 52.7631 17.1752 52.5169 16.9006C52.2754 16.6259 51.9463 16.3987 51.5297 16.2188C51.1177 16.0388 50.6513 15.8802 50.1305 15.7429L48.4118 15.2741C47.247 14.9569 46.3237 14.4905 45.6419 13.875C44.9648 13.2595 44.6262 12.4451 44.6262 11.4318C44.6262 10.5937 44.8535 9.86222 45.3081 9.23722C45.7626 8.61222 46.3781 8.12689 47.1547 7.78125C47.9312 7.43087 48.8071 7.25568 49.7825 7.25568C50.7673 7.25568 51.6362 7.4285 52.389 7.77415C53.1466 8.11979 53.7432 8.59564 54.1788 9.2017C54.6144 9.80303 54.8417 10.4943 54.8606 11.2756H52.7441ZM69.763 12.1847H67.5471C67.4618 11.7112 67.3032 11.2945 67.0712 10.9347C66.8392 10.5748 66.5551 10.2694 66.2189 10.0185C65.8828 9.76752 65.5063 9.57812 65.0897 9.45028C64.6777 9.32244 64.2398 9.25852 63.7757 9.25852C62.9377 9.25852 62.1872 9.46922 61.5243 9.89062C60.8662 10.312 60.3453 10.9299 59.9618 11.7443C59.583 12.5587 59.3936 13.553 59.3936 14.7273C59.3936 15.911 59.583 16.91 59.9618 17.7244C60.3453 18.5388 60.8685 19.1544 61.5314 19.571C62.1943 19.9877 62.94 20.196 63.7686 20.196C64.2279 20.196 64.6635 20.1345 65.0755 20.0114C65.4921 19.8835 65.8685 19.6965 66.2047 19.4503C66.5409 19.2041 66.825 18.9034 67.057 18.5483C67.2937 18.1884 67.4571 17.7765 67.5471 17.3125L69.763 17.3196C69.6446 18.0346 69.415 18.6927 69.074 19.294C68.7379 19.8906 68.3046 20.4067 67.7743 20.8423C67.2488 21.2732 66.6474 21.607 65.9703 21.8438C65.2933 22.0805 64.5546 22.1989 63.7544 22.1989C62.495 22.1989 61.3728 21.9006 60.388 21.304C59.4031 20.7027 58.6266 19.8433 58.0584 18.7259C57.495 17.6084 57.2132 16.2756 57.2132 14.7273C57.2132 13.1742 57.4973 11.8414 58.0655 10.7287C58.6337 9.61127 59.4102 8.75426 60.3951 8.15767C61.3799 7.55634 62.4997 7.25568 63.7544 7.25568C64.5262 7.25568 65.2459 7.36695 65.9135 7.58949C66.5859 7.80729 67.1896 8.12926 67.7246 8.5554C68.2596 8.9768 68.7024 9.4929 69.0527 10.1037C69.4031 10.7098 69.6399 11.4034 69.763 12.1847Z" fill="#B78400"/>
</svg>
