<svg width="100" height="31" viewBox="0 0 100 31" fill="none" xmlns="http://www.w3.org/2000/svg">
<rect x="1.5" y="1.5" width="97" height="28" rx="13.5" fill="black" stroke="#FAFF00" stroke-width="3"/>
<path d="M13.8033 8.90909H16.0469L19.4666 14.8601H19.6072L23.027 8.90909H25.2706L20.5213 16.8608V22H18.5526V16.8608L13.8033 8.90909ZM27.1355 22V8.90909H35.3429V10.6094H29.1106V14.598H34.9146V16.2919H29.1106V20.2997H35.4196V22H27.1355ZM37.9812 22V8.90909H39.9563V20.2997H45.8881V22H37.9812ZM48.1413 22V8.90909H50.1165V20.2997H56.0483V22H48.1413ZM69.1632 15.4545C69.1632 16.8523 68.9075 18.054 68.3961 19.0597C67.8848 20.0611 67.1838 20.8324 66.2931 21.3736C65.4068 21.9105 64.399 22.179 63.2697 22.179C62.1362 22.179 61.1241 21.9105 60.2335 21.3736C59.3471 20.8324 58.6483 20.0589 58.1369 19.0533C57.6255 18.0476 57.3699 16.848 57.3699 15.4545C57.3699 14.0568 57.6255 12.8572 58.1369 11.8558C58.6483 10.8501 59.3471 10.0788 60.2335 9.5419C61.1241 9.00071 62.1362 8.73011 63.2697 8.73011C64.399 8.73011 65.4068 9.00071 66.2931 9.5419C67.1838 10.0788 67.8848 10.8501 68.3961 11.8558C68.9075 12.8572 69.1632 14.0568 69.1632 15.4545ZM67.2072 15.4545C67.2072 14.3892 67.0346 13.4922 66.6895 12.7635C66.3485 12.0305 65.8798 11.4766 65.2832 11.1016C64.6909 10.7223 64.0197 10.5327 63.2697 10.5327C62.5154 10.5327 61.8422 10.7223 61.2498 11.1016C60.6575 11.4766 60.1887 12.0305 59.8436 12.7635C59.5027 13.4922 59.3322 14.3892 59.3322 15.4545C59.3322 16.5199 59.5027 17.419 59.8436 18.152C60.1887 18.8807 60.6575 19.4347 61.2498 19.8139C61.8422 20.1889 62.5154 20.3764 63.2697 20.3764C64.0197 20.3764 64.6909 20.1889 65.2832 19.8139C65.8798 19.4347 66.3485 18.8807 66.6895 18.152C67.0346 17.419 67.2072 16.5199 67.2072 15.4545ZM74.0307 22L70.4 8.90909H72.4775L75.0279 19.0469H75.1493L77.802 8.90909H79.8603L82.513 19.0533H82.6344L85.1784 8.90909H87.2623L83.6252 22H81.6373L78.8823 12.1946H78.78L76.025 22H74.0307Z" fill="#FAFF00"/>
</svg>
