<svg width="100" height="31" viewBox="0 0 100 31" fill="none" xmlns="http://www.w3.org/2000/svg">
<rect x="1.5" y="1.5" width="97" height="28" rx="13.5" fill="black" stroke="#B78400" stroke-width="3"/>
<path d="M45.7422 11.2756C45.6664 10.6032 45.3539 10.0824 44.8047 9.71307C44.2554 9.33902 43.5642 9.15199 42.7308 9.15199C42.1342 9.15199 41.6181 9.24669 41.1825 9.43608C40.7469 9.62074 40.4084 9.87642 40.1669 10.2031C39.9302 10.5251 39.8118 10.892 39.8118 11.304C39.8118 11.6496 39.8923 11.9479 40.0533 12.1989C40.219 12.4498 40.4344 12.6605 40.6996 12.831C40.9695 12.9967 41.2583 13.1364 41.5661 13.25C41.8738 13.3589 42.1697 13.4489 42.4538 13.5199L43.8743 13.8892C44.3383 14.0028 44.8142 14.1567 45.3018 14.3509C45.7895 14.545 46.2417 14.8007 46.6584 15.1179C47.075 15.4351 47.4112 15.8281 47.6669 16.2969C47.9273 16.7656 48.0575 17.3267 48.0575 17.9801C48.0575 18.804 47.8445 19.5355 47.4183 20.1747C46.9969 20.8139 46.3838 21.3182 45.5788 21.6875C44.7786 22.0568 43.8104 22.2415 42.674 22.2415C41.585 22.2415 40.6428 22.0687 39.8473 21.723C39.0518 21.3774 38.4292 20.8873 37.9794 20.2528C37.5296 19.6136 37.281 18.8561 37.2337 17.9801H39.4354C39.478 18.5057 39.6484 18.9437 39.9467 19.294C40.2498 19.6397 40.6357 19.8977 41.1044 20.0682C41.5779 20.2339 42.0964 20.3168 42.6598 20.3168C43.2801 20.3168 43.8317 20.2197 44.3146 20.0256C44.8023 19.8267 45.1858 19.5521 45.4652 19.2017C45.7446 18.8466 45.8842 18.4323 45.8842 17.9588C45.8842 17.5279 45.7611 17.1752 45.5149 16.9006C45.2734 16.6259 44.9444 16.3987 44.5277 16.2188C44.1158 16.0388 43.6494 15.8802 43.1286 15.7429L41.4098 15.2741C40.245 14.9569 39.3217 14.4905 38.6399 13.875C37.9628 13.2595 37.6243 12.4451 37.6243 11.4318C37.6243 10.5937 37.8516 9.86222 38.3061 9.23722C38.7607 8.61222 39.3762 8.12689 40.1527 7.78125C40.9292 7.43087 41.8052 7.25568 42.7805 7.25568C43.7654 7.25568 44.6342 7.4285 45.3871 7.77415C46.1446 8.11979 46.7412 8.59564 47.1768 9.2017C47.6125 9.80303 47.8397 10.4943 47.8587 11.2756H45.7422ZM62.761 12.1847H60.5451C60.4599 11.7112 60.3013 11.2945 60.0692 10.9347C59.8372 10.5748 59.5531 10.2694 59.217 10.0185C58.8808 9.76752 58.5044 9.57812 58.0877 9.45028C57.6758 9.32244 57.2378 9.25852 56.7738 9.25852C55.9357 9.25852 55.1853 9.46922 54.5224 9.89062C53.8642 10.312 53.3434 10.9299 52.9599 11.7443C52.5811 12.5587 52.3917 13.553 52.3917 14.7273C52.3917 15.911 52.5811 16.91 52.9599 17.7244C53.3434 18.5388 53.8666 19.1544 54.5295 19.571C55.1924 19.9877 55.9381 20.196 56.7667 20.196C57.226 20.196 57.6616 20.1345 58.0735 20.0114C58.4902 19.8835 58.8666 19.6965 59.2028 19.4503C59.5389 19.2041 59.823 18.9034 60.055 18.5483C60.2918 18.1884 60.4551 17.7765 60.5451 17.3125L62.761 17.3196C62.6426 18.0346 62.413 18.6927 62.0721 19.294C61.7359 19.8906 61.3027 20.4067 60.7724 20.8423C60.2468 21.2732 59.6455 21.607 58.9684 21.8438C58.2913 22.0805 57.5527 22.1989 56.7525 22.1989C55.493 22.1989 54.3709 21.9006 53.386 21.304C52.4012 20.7027 51.6246 19.8433 51.0565 18.7259C50.493 17.6084 50.2113 16.2756 50.2113 14.7273C50.2113 13.1742 50.4954 11.8414 51.0636 10.7287C51.6317 9.61127 52.4083 8.75426 53.3931 8.15767C54.378 7.55634 55.4978 7.25568 56.7525 7.25568C57.5243 7.25568 58.244 7.36695 58.9116 7.58949C59.5839 7.80729 60.1876 8.12926 60.7227 8.5554C61.2577 8.9768 61.7004 9.4929 62.0508 10.1037C62.4012 10.7098 62.6379 11.4034 62.761 12.1847Z" fill="#B78400"/>
</svg>
