<svg width="100" height="31" viewBox="0 0 100 31" fill="none" xmlns="http://www.w3.org/2000/svg">
<rect x="1.5" y="1.5" width="97" height="28" rx="13.5" fill="black" stroke="white" stroke-width="3"/>
<path d="M18.9864 8.90909H20.968V17.5192C20.968 18.4354 20.7528 19.2472 20.3224 19.9545C19.892 20.6577 19.2868 21.2116 18.507 21.6165C17.7272 22.017 16.8131 22.2173 15.7648 22.2173C14.7208 22.2173 13.8089 22.017 13.029 21.6165C12.2492 21.2116 11.6441 20.6577 11.2137 19.9545C10.7833 19.2472 10.5681 18.4354 10.5681 17.5192V8.90909H12.5432V17.3594C12.5432 17.9517 12.6732 18.478 12.9332 18.9382C13.1974 19.3984 13.5702 19.7607 14.0518 20.0249C14.5333 20.2848 15.1043 20.4148 15.7648 20.4148C16.4296 20.4148 17.0028 20.2848 17.4843 20.0249C17.9701 19.7607 18.3408 19.3984 18.5965 18.9382C18.8564 18.478 18.9864 17.9517 18.9864 17.3594V8.90909ZM34.4056 8.90909V22H32.5903L25.9362 12.3991H25.8147V22H23.8396V8.90909H25.6677L32.3282 18.5227H32.4497V8.90909H34.4056ZM37.2868 22V8.90909H39.262V15.1605H39.4218L44.9126 8.90909H47.3991L42.1192 14.8026L47.4182 22H45.0404L40.8089 16.1513L39.262 17.9283V22H37.2868ZM59.961 15.4545C59.961 16.8523 59.7053 18.054 59.194 19.0597C58.6826 20.0611 57.9816 20.8324 57.091 21.3736C56.2046 21.9105 55.1968 22.179 54.0676 22.179C52.934 22.179 51.922 21.9105 51.0313 21.3736C50.145 20.8324 49.4461 20.0589 48.9347 19.0533C48.4234 18.0476 48.1677 16.848 48.1677 15.4545C48.1677 14.0568 48.4234 12.8572 48.9347 11.8558C49.4461 10.8501 50.145 10.0788 51.0313 9.5419C51.922 9.00071 52.934 8.73011 54.0676 8.73011C55.1968 8.73011 56.2046 9.00071 57.091 9.5419C57.9816 10.0788 58.6826 10.8501 59.194 11.8558C59.7053 12.8572 59.961 14.0568 59.961 15.4545ZM58.0051 15.4545C58.0051 14.3892 57.8325 13.4922 57.4873 12.7635C57.1464 12.0305 56.6776 11.4766 56.0811 11.1016C55.4887 10.7223 54.8176 10.5327 54.0676 10.5327C53.3133 10.5327 52.64 10.7223 52.0477 11.1016C51.4553 11.4766 50.9866 12.0305 50.6414 12.7635C50.3005 13.4922 50.1301 14.3892 50.1301 15.4545C50.1301 16.5199 50.3005 17.419 50.6414 18.152C50.9866 18.8807 51.4553 19.4347 52.0477 19.8139C52.64 20.1889 53.3133 20.3764 54.0676 20.3764C54.8176 20.3764 55.4887 20.1889 56.0811 19.8139C56.6776 19.4347 57.1464 18.8807 57.4873 18.152C57.8325 17.419 58.0051 16.5199 58.0051 15.4545ZM64.8286 22L61.1979 8.90909H63.2753L65.8257 19.0469H65.9472L68.5999 8.90909H70.6581L73.3108 19.0533H73.4323L75.9763 8.90909H78.0601L74.423 22H72.4351L69.6801 12.1946H69.5779L66.8229 22H64.8286ZM90.4271 8.90909V22H88.6118L81.9577 12.3991H81.8362V22H79.8611V8.90909H81.6892L88.3497 18.5227H88.4711V8.90909H90.4271Z" fill="white"/>
</svg>
