<svg width="100" height="37" viewBox="0 0 100 37" fill="none" xmlns="http://www.w3.org/2000/svg">
<rect x="1.5" y="7.5" width="97" height="28" rx="13.5" fill="black" stroke="#005AFF" stroke-width="3"/>
<path d="M56.9554 30H54.7423L59.715 16.1818H62.1237L67.0964 30H64.8833L60.9767 18.6918H60.8687L56.9554 30ZM57.3265 24.5888H64.5055V26.343H57.3265V24.5888ZM69.0918 30V16.1818H71.1767V28.2053H77.4381V30H69.0918ZM79.8165 30V16.1818H84.8768C85.8574 16.1818 86.6693 16.3437 87.3125 16.6676C87.9558 16.987 88.4371 17.421 88.7564 17.9698C89.0758 18.5141 89.2355 19.1281 89.2355 19.8118C89.2355 20.3875 89.1298 20.8733 88.9184 21.2692C88.707 21.6605 88.4236 21.9754 88.0682 22.2138C87.7174 22.4477 87.3305 22.6186 86.9077 22.7266V22.8615C87.3665 22.884 87.8141 23.0324 88.2504 23.3068C88.6912 23.5767 89.0556 23.9613 89.3434 24.4606C89.6313 24.9599 89.7753 25.5671 89.7753 26.2823C89.7753 26.9885 89.6088 27.6228 89.276 28.185C88.9476 28.7428 88.4393 29.1858 87.7511 29.5142C87.0629 29.8381 86.1835 30 85.113 30H79.8165ZM81.9013 28.212H84.9106C85.9091 28.212 86.6243 28.0186 87.0562 27.6317C87.488 27.2449 87.7039 26.7614 87.7039 26.1811C87.7039 25.7448 87.5937 25.3445 87.3733 24.9801C87.1529 24.6158 86.838 24.3256 86.4287 24.1097C86.0238 23.8938 85.5425 23.7859 84.9848 23.7859H81.9013V28.212ZM81.9013 22.1598H84.6946C85.1625 22.1598 85.583 22.0698 85.9564 21.8899C86.3342 21.71 86.6333 21.4581 86.8537 21.1342C87.0786 20.8059 87.1911 20.419 87.1911 19.9737C87.1911 19.4025 86.9909 18.9234 86.5906 18.5366C86.1903 18.1497 85.5763 17.9563 84.7486 17.9563H81.9013V22.1598Z" fill="#005AFF"/>
<path d="M39 36L55.4545 9H22.5455L39 36Z" fill="#005AFF"/>
<path d="M0 21C0 12.7157 6.71573 6 15 6H39V37H15C6.71573 37 0 30.2843 0 22V21Z" fill="#005AFF"/>
<path d="M13.3439 30L13.8127 27.1591L19.9917 22.6705C20.4036 22.3722 20.7587 22.0928 21.057 21.8324C21.36 21.5672 21.6039 21.295 21.7885 21.0156C21.9732 20.7363 22.0939 20.4261 22.1507 20.0852C22.2123 19.7112 22.1839 19.3916 22.0655 19.1264C21.9519 18.8565 21.7672 18.6506 21.5115 18.5085C21.2559 18.3665 20.9481 18.2955 20.5882 18.2955C20.2237 18.2955 19.8899 18.3688 19.5868 18.5156C19.2838 18.6624 19.0305 18.8778 18.8269 19.1619C18.628 19.446 18.4954 19.7917 18.4292 20.1989H14.6792C14.8496 19.1761 15.226 18.2955 15.8084 17.5568C16.3955 16.8182 17.1389 16.25 18.0385 15.8523C18.9429 15.4545 19.9585 15.2557 21.0854 15.2557C22.2502 15.2557 23.2303 15.4427 24.0257 15.8168C24.8212 16.1861 25.3965 16.7069 25.7516 17.3793C26.1114 18.0516 26.2132 18.84 26.057 19.7443C25.9623 20.303 25.7516 20.857 25.4249 21.4062C25.1029 21.9555 24.5845 22.5663 23.8695 23.2386C23.1593 23.9062 22.1744 24.7017 20.915 25.625L19.3667 26.7614L19.3525 26.8466H25.0343L24.5087 30H13.3439ZM32.1259 30.1989C30.9422 30.1989 29.9266 30.0024 29.079 29.6094C28.2315 29.2116 27.6065 28.6648 27.204 27.9688C26.8063 27.2727 26.6855 26.4725 26.8418 25.5682H30.7623C30.7102 25.8475 30.7457 26.0985 30.8688 26.321C30.9966 26.5388 31.1908 26.7093 31.4512 26.8324C31.7116 26.9555 32.0123 27.017 32.3532 27.017C32.7604 27.017 33.1273 26.9342 33.454 26.7685C33.7855 26.6027 34.0553 26.3873 34.2637 26.1222C34.4767 25.857 34.6069 25.5777 34.6543 25.2841C34.7064 24.9811 34.6567 24.7348 34.5051 24.5455C34.3536 24.3513 34.1287 24.2093 33.8304 24.1193C33.5321 24.0246 33.1818 23.9773 32.7793 23.9773H31.2168L31.6713 21.25H33.0634C33.4659 21.25 33.8352 21.1766 34.1713 21.0298C34.5075 20.883 34.7869 20.6818 35.0094 20.4261C35.2319 20.1657 35.3693 19.8722 35.4213 19.5455C35.464 19.2945 35.4426 19.0767 35.3574 18.892C35.2769 18.7027 35.1325 18.5559 34.9242 18.4517C34.7206 18.3475 34.4507 18.2955 34.1145 18.2955C33.7499 18.2955 33.3996 18.3594 33.0634 18.4872C32.7272 18.6151 32.4455 18.7926 32.2182 19.0199C31.9909 19.2472 31.856 19.5076 31.8134 19.8011H28.0634C28.2102 18.911 28.5771 18.125 29.1642 17.4432C29.7514 16.7614 30.49 16.2263 31.3801 15.8381C32.275 15.4498 33.2528 15.2557 34.3134 15.2557C35.4213 15.2557 36.3636 15.4593 37.1401 15.8665C37.9166 16.2737 38.4872 16.8134 38.8517 17.4858C39.2163 18.1581 39.3323 18.892 39.1998 19.6875C39.0577 20.5445 38.6718 21.1932 38.0421 21.6335C37.4123 22.0739 36.624 22.3343 35.677 22.4148V22.5284C36.7092 22.6468 37.507 23.0256 38.0705 23.6648C38.6339 24.304 38.8399 25.09 38.6884 26.0227C38.5605 26.8182 38.1936 27.5308 37.5875 28.1605C36.9815 28.7902 36.205 29.2874 35.258 29.652C34.3158 30.0166 33.2717 30.1989 32.1259 30.1989Z" fill="black"/>
<line x1="38.567" y1="36.6785" x2="54.6915" y2="8.74999" stroke="#005AFF"/>
</svg>
