<svg width="100" height="37" viewBox="0 0 100 37" fill="none" xmlns="http://www.w3.org/2000/svg">
<rect x="1.5" y="7.5" width="97" height="28" rx="13.5" fill="black" stroke="#006F62" stroke-width="3"/>
<path d="M56.139 29H53.9259L58.8986 15.1818H61.3073L66.28 29H64.0669L60.1603 17.6918H60.0523L56.139 29ZM56.5101 23.5888H63.6891V25.343H56.5101V23.5888ZM68.2754 29V15.1818H70.3603V27.2053H76.6217V29H68.2754ZM90.4652 22.0909C90.4652 23.5663 90.1953 24.8348 89.6555 25.8963C89.1157 26.9534 88.3758 27.7675 87.4357 28.3388C86.5001 28.9055 85.4363 29.1889 84.2443 29.1889C83.0478 29.1889 81.9795 28.9055 81.0394 28.3388C80.1038 27.7675 79.3661 26.9511 78.8263 25.8896C78.2865 24.828 78.0166 23.5618 78.0166 22.0909C78.0166 20.6155 78.2865 19.3493 78.8263 18.2923C79.3661 17.2307 80.1038 16.4165 81.0394 15.8498C81.9795 15.2785 83.0478 14.9929 84.2443 14.9929C85.4363 14.9929 86.5001 15.2785 87.4357 15.8498C88.3758 16.4165 89.1157 17.2307 89.6555 18.2923C90.1953 19.3493 90.4652 20.6155 90.4652 22.0909ZM88.4005 22.0909C88.4005 20.9664 88.2184 20.0195 87.854 19.2504C87.4942 18.4767 86.9994 17.8919 86.3696 17.4961C85.7444 17.0958 85.0359 16.8956 84.2443 16.8956C83.4481 16.8956 82.7374 17.0958 82.1122 17.4961C81.4869 17.8919 80.9921 18.4767 80.6278 19.2504C80.2679 20.0195 80.088 20.9664 80.088 22.0909C80.088 23.2154 80.2679 24.1645 80.6278 24.9382C80.9921 25.7074 81.4869 26.2921 82.1122 26.6925C82.7374 27.0883 83.4481 27.2862 84.2443 27.2862C85.0359 27.2862 85.7444 27.0883 86.3696 26.6925C86.9994 26.2921 87.4942 25.7074 87.854 24.9382C88.2184 24.1645 88.4005 23.2154 88.4005 22.0909Z" fill="#006F62"/>
<path d="M39 36L55.4545 9H22.5455L39 36Z" fill="#006F62"/>
<path d="M0 21C0 12.7157 6.71573 6 15 6H39V37H15C6.71573 37 0 30.2843 0 22V21Z" fill="#006F62"/>
<path d="M24.0222 15.4545L21.6074 30H17.6586L19.4767 19.0909H19.3915L15.8972 20.9943L16.437 17.642L20.3858 15.4545H24.0222ZM24.8212 27.7273L25.3326 24.6591L32.7189 15.4545H35.503L34.8212 19.5455H33.2303L29.253 24.5455L29.2246 24.6591H37.861L37.3496 27.7273H24.8212ZM31.5257 30L32.0655 26.7898L32.378 25.4545L34.0257 15.4545H37.7189L35.3042 30H31.5257Z" fill="black"/>
<line x1="38.567" y1="36.6785" x2="54.6915" y2="8.74999" stroke="#006F62"/>
</svg>
