<svg width="100" height="37" viewBox="0 0 100 37" fill="none" xmlns="http://www.w3.org/2000/svg">
<rect x="1.5" y="7.5" width="97" height="28" rx="13.5" fill="black" stroke="#900000" stroke-width="3"/>
<path d="M54.6099 30V16.1818H59.6703C60.6509 16.1818 61.4628 16.3437 62.106 16.6676C62.7492 16.987 63.2305 17.421 63.5499 17.9698C63.8693 18.5141 64.0289 19.1281 64.0289 19.8118C64.0289 20.3875 63.9232 20.8733 63.7118 21.2692C63.5004 21.6605 63.217 21.9754 62.8617 22.2138C62.5108 22.4477 62.124 22.6186 61.7012 22.7266V22.8615C62.16 22.884 62.6075 23.0324 63.0439 23.3068C63.4847 23.5767 63.849 23.9613 64.1369 24.4606C64.4248 24.9599 64.5687 25.5671 64.5687 26.2823C64.5687 26.9885 64.4023 27.6228 64.0694 28.185C63.7411 28.7428 63.2328 29.1858 62.5446 29.5142C61.8564 29.8381 60.977 30 59.9064 30H54.6099ZM56.6948 28.212H59.704C60.7026 28.212 61.4178 28.0186 61.8496 27.6317C62.2814 27.2449 62.4973 26.7614 62.4973 26.1811C62.4973 25.7448 62.3871 25.3445 62.1667 24.9801C61.9463 24.6158 61.6315 24.3256 61.2221 24.1097C60.8173 23.8938 60.336 23.7859 59.7782 23.7859H56.6948V28.212ZM56.6948 22.1598H59.4881C59.9559 22.1598 60.3765 22.0698 60.7498 21.8899C61.1277 21.71 61.4268 21.4581 61.6472 21.1342C61.8721 20.8059 61.9846 20.419 61.9846 19.9737C61.9846 19.4025 61.7844 18.9234 61.3841 18.5366C60.9837 18.1497 60.3697 17.9563 59.5421 17.9563H56.6948V22.1598ZM79.0447 23.0909C79.0447 24.5663 78.7749 25.8348 78.2351 26.8963C77.6953 27.9534 76.9554 28.7675 76.0153 29.3388C75.0797 29.9055 74.0159 30.1889 72.8239 30.1889C71.6274 30.1889 70.5591 29.9055 69.619 29.3388C68.6834 28.7675 67.9457 27.9511 67.4059 26.8896C66.8661 25.828 66.5962 24.5618 66.5962 23.0909C66.5962 21.6155 66.8661 20.3493 67.4059 19.2923C67.9457 18.2307 68.6834 17.4165 69.619 16.8498C70.5591 16.2785 71.6274 15.9929 72.8239 15.9929C74.0159 15.9929 75.0797 16.2785 76.0153 16.8498C76.9554 17.4165 77.6953 18.2307 78.2351 19.2923C78.7749 20.3493 79.0447 21.6155 79.0447 23.0909ZM76.9801 23.0909C76.9801 21.9664 76.7979 21.0195 76.4336 20.2504C76.0737 19.4767 75.579 18.8919 74.9492 18.4961C74.324 18.0958 73.6155 17.8956 72.8239 17.8956C72.0277 17.8956 71.317 18.0958 70.6918 18.4961C70.0665 18.8919 69.5717 19.4767 69.2074 20.2504C68.8475 21.0195 68.6676 21.9664 68.6676 23.0909C68.6676 24.2154 68.8475 25.1645 69.2074 25.9382C69.5717 26.7074 70.0665 27.2921 70.6918 27.6925C71.317 28.0883 72.0277 28.2862 72.8239 28.2862C73.6155 28.2862 74.324 28.0883 74.9492 27.6925C75.579 27.2921 76.0737 26.7074 76.4336 25.9382C76.7979 25.1645 76.9801 24.2154 76.9801 23.0909ZM80.3689 17.9766V16.1818H91.0631V17.9766H86.7517V30H84.6736V17.9766H80.3689Z" fill="#900000"/>
<path d="M39 36L55.4545 9H22.5455L39 36Z" fill="#900000"/>
<path d="M0 21C0 12.7157 6.71573 6 15 6H39V37H15C6.71573 37 0 30.2843 0 22V21Z" fill="#900000"/>
<path d="M14.8079 30L22.3931 18.6932L22.4215 18.608H15.717L16.2283 15.4545H27.0238L26.5124 18.608L18.8704 30H14.8079ZM27.4055 30L34.9908 18.6932L35.0192 18.608H28.3146L28.826 15.4545H39.6214L39.1101 18.608L31.468 30H27.4055Z" fill="black"/>
<line x1="38.567" y1="36.6785" x2="54.6915" y2="8.74999" stroke="#900000"/>
</svg>
