<svg width="100" height="37" viewBox="0 0 100 37" fill="none" xmlns="http://www.w3.org/2000/svg">
<rect x="1.5" y="7.5" width="97" height="28" rx="13.5" fill="black" stroke="#0090FF" stroke-width="3"/>
<path d="M63.2574 19.5472C63.1269 19.1379 62.9515 18.7713 62.7311 18.4474C62.5152 18.1191 62.2565 17.8402 61.9552 17.6108C61.6538 17.3769 61.3097 17.1992 60.9229 17.0778C60.5405 16.9563 60.1199 16.8956 59.6611 16.8956C58.883 16.8956 58.1813 17.0958 57.556 17.4961C56.9308 17.8964 56.436 18.4834 56.0716 19.2571C55.7118 20.0263 55.5319 20.9686 55.5319 22.0842C55.5319 23.2042 55.714 24.151 56.0784 24.9247C56.4427 25.6984 56.942 26.2854 57.5763 26.6857C58.2105 27.0861 58.9324 27.2862 59.7421 27.2862C60.4933 27.2862 61.1478 27.1333 61.7055 26.8274C62.2678 26.5215 62.7019 26.0897 63.0077 25.532C63.3181 24.9697 63.4733 24.3085 63.4733 23.5483L64.0131 23.6495H60.0592V21.929H65.4907V23.5011C65.4907 24.6616 65.2433 25.6692 64.7485 26.5238C64.2582 27.3739 63.579 28.0307 62.7108 28.494C61.8472 28.9573 60.8576 29.1889 59.7421 29.1889C58.4916 29.1889 57.3941 28.901 56.4495 28.3253C55.5094 27.7495 54.7762 26.9331 54.2499 25.8761C53.7236 24.8145 53.4605 23.555 53.4605 22.0977C53.4605 20.9956 53.6134 20.006 53.9193 19.1289C54.2252 18.2518 54.6547 17.5073 55.208 16.8956C55.7658 16.2794 56.4202 15.8093 57.1714 15.4854C57.9271 15.1571 58.7525 14.9929 59.6476 14.9929C60.3943 14.9929 61.0893 15.1031 61.7325 15.3235C62.3802 15.5439 62.956 15.8565 63.4598 16.2614C63.9681 16.6662 64.3886 17.1475 64.7215 17.7053C65.0544 18.2585 65.2793 18.8725 65.3962 19.5472H63.2574ZM68.8778 29H66.6647L71.6373 15.1818H74.0461L79.0187 29H76.8057L72.8991 17.6918H72.7911L68.8778 29ZM69.2488 23.5888H76.4278V25.343H69.2488V23.5888ZM88.4395 18.8118C88.3675 18.1731 88.0706 17.6783 87.5488 17.3274C87.027 16.9721 86.3703 16.7944 85.5787 16.7944C85.0119 16.7944 84.5216 16.8844 84.1078 17.0643C83.694 17.2397 83.3723 17.4826 83.1429 17.793C82.918 18.0988 82.8056 18.4474 82.8056 18.8388C82.8056 19.1671 82.882 19.4505 83.035 19.6889C83.1924 19.9273 83.3971 20.1275 83.649 20.2894C83.9054 20.4469 84.1797 20.5795 84.4721 20.6875C84.7645 20.791 85.0456 20.8764 85.3155 20.9439L86.665 21.2947C87.1058 21.4027 87.5578 21.5489 88.0211 21.7333C88.4844 21.9177 88.914 22.1606 89.3098 22.462C89.7057 22.7634 90.025 23.1367 90.2679 23.582C90.5153 24.0273 90.639 24.5604 90.639 25.1811C90.639 25.9638 90.4366 26.6587 90.0318 27.266C89.6315 27.8732 89.0489 28.3523 88.2843 28.7031C87.5241 29.054 86.6042 29.2294 85.5247 29.2294C84.4901 29.2294 83.595 29.0652 82.8393 28.7369C82.0836 28.4085 81.4921 27.9429 81.0648 27.3402C80.6375 26.733 80.4013 26.0133 80.3564 25.1811H82.448C82.4885 25.6804 82.6504 26.0965 82.9338 26.4293C83.2217 26.7577 83.5882 27.0028 84.0336 27.1648C84.4834 27.3222 84.9759 27.4009 85.5112 27.4009C86.1004 27.4009 86.6245 27.3087 87.0833 27.1243C87.5466 26.9354 87.9109 26.6745 88.1763 26.3416C88.4417 26.0043 88.5744 25.6107 88.5744 25.1609C88.5744 24.7515 88.4574 24.4164 88.2235 24.1555C87.9941 23.8946 87.6815 23.6787 87.2857 23.5078C86.8944 23.3369 86.4513 23.1862 85.9565 23.0558L84.3237 22.6104C83.2172 22.3091 82.34 21.866 81.6923 21.2812C81.0491 20.6965 80.7275 19.9228 80.7275 18.9602C80.7275 18.1641 80.9434 17.4691 81.3752 16.8754C81.807 16.2816 82.3917 15.8205 83.1294 15.4922C83.8671 15.1593 84.6993 14.9929 85.6259 14.9929C86.5615 14.9929 87.3869 15.1571 88.1021 15.4854C88.8218 15.8138 89.3886 16.2659 89.8024 16.8416C90.2162 17.4129 90.4321 18.0696 90.4501 18.8118H88.4395Z" fill="#0090FF"/>
<path d="M39 36L55.4545 9H22.5455L39 36Z" fill="#0090FF"/>
<path d="M0 21C0 12.7157 6.71573 6 15 6H39V37H15C6.71573 37 0 30.2843 0 22V21Z" fill="#0090FF"/>
<path d="M23.739 15.4545L21.3242 30H17.3754L19.1935 19.0909H19.1083L15.614 20.9943L16.1538 17.642L20.1026 15.4545H23.739ZM30.5891 30.3977C29.2634 30.3977 28.1673 30.0947 27.3008 29.4886C26.4343 28.8778 25.8353 28.0019 25.5039 26.8608C25.1725 25.7197 25.1441 24.3513 25.4187 22.7557C25.6933 21.1553 26.1834 19.7964 26.8888 18.679C27.5991 17.5616 28.4798 16.7116 29.5309 16.1293C30.5868 15.5469 31.7728 15.2557 33.0891 15.2557C34.4054 15.2557 35.4944 15.5469 36.3562 16.1293C37.2179 16.7116 37.8169 17.5616 38.1531 18.679C38.4892 19.7917 38.5247 21.1506 38.2596 22.7557C37.9944 24.3561 37.5067 25.7268 36.7965 26.8679C36.091 28.009 35.208 28.8826 34.1474 29.4886C33.0915 30.0947 31.9054 30.3977 30.5891 30.3977ZM31.1289 27.1875C31.8107 27.1875 32.4215 26.8324 32.9613 26.1222C33.5058 25.4072 33.9083 24.285 34.1687 22.7557C34.3391 21.7614 34.3794 20.947 34.2894 20.3125C34.1995 19.6733 34.0053 19.2022 33.707 18.8991C33.4087 18.5914 33.0323 18.4375 32.5778 18.4375C31.896 18.4375 31.2757 18.7855 30.717 19.4815C30.163 20.1728 29.7605 21.2642 29.5096 22.7557C29.3391 23.7784 29.3013 24.6165 29.396 25.2699C29.4906 25.9233 29.6895 26.4062 29.9925 26.7188C30.2956 27.0312 30.6744 27.1875 31.1289 27.1875Z" fill="black"/>
<line x1="38.567" y1="36.6785" x2="54.6915" y2="8.74999" stroke="#0090FF"/>
</svg>
