<svg width="100" height="37" viewBox="0 0 100 37" fill="none" xmlns="http://www.w3.org/2000/svg">
<rect x="1.5" y="7.5" width="97" height="28" rx="13.5" fill="black" stroke="#00D2BE" stroke-width="3"/>
<path d="M51.7896 29V15.1818H53.8745V21.1868H60.7633V15.1818H62.8549V29H60.7633V22.9748H53.8745V29H51.7896ZM67.0584 29H64.8453L69.818 15.1818H72.2267L77.1994 29H74.9863L71.0797 17.6918H70.9718L67.0584 29ZM67.4295 23.5888H74.6085V25.343H67.4295V23.5888ZM79.1949 15.1818H81.7251L86.1242 25.9233H86.2861L90.6853 15.1818H93.2155V29H91.2318V19.0007H91.1036L87.0283 28.9798H85.382L81.3067 18.994H81.1785V29H79.1949V15.1818Z" fill="#00D2BE"/>
<path d="M39 36L55.4545 9H22.5455L39 36Z" fill="#00D2BE"/>
<path d="M0 21C0 12.7157 6.71573 6 15 6H39V37H15C6.71573 37 0 30.2843 0 22V21Z" fill="#00D2BE"/>
<path d="M12.7411 27.7273L13.2525 24.6591L20.6388 15.4545H23.4229L22.7411 19.5455H21.1502L17.1729 24.5455L17.1445 24.6591H25.7809L25.2695 27.7273H12.7411ZM19.4457 30L19.9854 26.7898L20.2979 25.4545L21.9457 15.4545H25.6388L23.2241 30H19.4457ZM26.7841 27.7273L27.2955 24.6591L34.6818 15.4545H37.4659L36.7841 19.5455H35.1932L31.2159 24.5455L31.1875 24.6591H39.8239L39.3125 27.7273H26.7841ZM33.4886 30L34.0284 26.7898L34.3409 25.4545L35.9886 15.4545H39.6818L37.267 30H33.4886Z" fill="black"/>
<line x1="38.567" y1="36.6785" x2="54.6915" y2="8.74999" stroke="#00D2BE"/>
</svg>
