<svg width="100" height="37" viewBox="0 0 100 37" fill="none" xmlns="http://www.w3.org/2000/svg">
<rect x="1.5" y="7.5" width="97" height="28" rx="13.5" fill="black" stroke="white" stroke-width="3"/>
<path d="M54.6006 30V16.1818H56.6855V22.1868H63.5744V16.1818H65.666V30H63.5744V23.9748H56.6855V30H54.6006ZM77.5882 16.1818H79.6798V25.2702C79.6798 26.2373 79.4527 27.0942 78.9984 27.8409C78.544 28.5831 77.9053 29.1679 77.0822 29.5952C76.259 30.018 75.2942 30.2294 74.1876 30.2294C73.0856 30.2294 72.123 30.018 71.2998 29.5952C70.4767 29.1679 69.838 28.5831 69.3837 27.8409C68.9293 27.0942 68.7022 26.2373 68.7022 25.2702V16.1818H70.7871V25.1016C70.7871 25.7268 70.9243 26.2823 71.1986 26.7681C71.4775 27.2539 71.8711 27.6362 72.3794 27.9151C72.8877 28.1895 73.4904 28.3267 74.1876 28.3267C74.8893 28.3267 75.4943 28.1895 76.0026 27.9151C76.5154 27.6362 76.9067 27.2539 77.1766 26.7681C77.451 26.2823 77.5882 25.7268 77.5882 25.1016V16.1818ZM82.711 30V16.1818H84.7959V28.2053H91.0572V30H82.711Z" fill="white"/>
<path d="M39 36L55.4545 9H22.5455L39 36Z" fill="white"/>
<path d="M0 21C0 12.7157 6.71573 6 15 6H39V37H15C6.71573 37 0 30.2843 0 22V21Z" fill="white"/>
<path d="M13.4885 30L13.9572 27.1591L20.1362 22.6705C20.5481 22.3722 20.9032 22.0928 21.2015 21.8324C21.5046 21.5672 21.7484 21.295 21.9331 21.0156C22.1177 20.7363 22.2385 20.4261 22.2953 20.0852C22.3568 19.7112 22.3284 19.3916 22.21 19.1264C22.0964 18.8565 21.9118 18.6506 21.6561 18.5085C21.4004 18.3665 21.0926 18.2955 20.7328 18.2955C20.3682 18.2955 20.0344 18.3688 19.7314 18.5156C19.4283 18.6624 19.175 18.8778 18.9714 19.1619C18.7725 19.446 18.64 19.7917 18.5737 20.1989H14.8237C14.9941 19.1761 15.3706 18.2955 15.9529 17.5568C16.5401 16.8182 17.2834 16.25 18.1831 15.8523C19.0874 15.4545 20.103 15.2557 21.2299 15.2557C22.3947 15.2557 23.3748 15.4427 24.1703 15.8168C24.9657 16.1861 25.541 16.7069 25.8961 17.3793C26.256 18.0516 26.3578 18.84 26.2015 19.7443C26.1068 20.303 25.8961 20.857 25.5694 21.4062C25.2475 21.9555 24.729 22.5663 24.014 23.2386C23.3038 23.9062 22.319 24.7017 21.0595 25.625L19.5112 26.7614L19.497 26.8466H25.1788L24.6532 30H13.4885ZM27.0716 30L34.6568 18.6932L34.6852 18.608H27.9806L28.492 15.4545H39.2875L38.7761 18.608L31.1341 30H27.0716Z" fill="black"/>
<line x1="38.567" y1="36.6785" x2="54.6915" y2="8.74999" stroke="white"/>
</svg>
