<svg width="100" height="37" viewBox="0 0 100 37" fill="none" xmlns="http://www.w3.org/2000/svg">
<rect x="1.5" y="7.5" width="97" height="28" rx="13.5" fill="black" stroke="#2B4562" stroke-width="3"/>
<path d="M52.9585 30V16.1818H55.0434V28.2053H61.3048V30H52.9585ZM65.5555 30H63.3424L68.3151 16.1818H70.7238L75.6965 30H73.4834L69.5768 18.6918H69.4688L65.5555 30ZM65.9266 24.5888H73.1056V26.343H65.9266V24.5888ZM79.21 30L75.3777 16.1818H77.5705L80.2626 26.8828H80.3908L83.1909 16.1818H85.3635L88.1635 26.8896H88.2917L90.9771 16.1818H93.1767L89.3375 30H87.2392L84.3311 19.6499H84.2232L81.3152 30H79.21Z" fill="#2B4562"/>
<path d="M39 36L55.4545 9H22.5455L39 36Z" fill="#2B4562"/>
<path d="M0 21C0 12.7157 6.71573 6 15 6H39V37H15C6.71573 37 0 30.2843 0 22V21Z" fill="#2B4562"/>
<path d="M12.4579 27.7273L12.9693 24.6591L20.3556 15.4545H23.1397L22.4579 19.5455H20.867L16.8897 24.5455L16.8613 24.6591H25.4977L24.9863 27.7273H12.4579ZM19.1625 30L19.7022 26.7898L20.0147 25.4545L21.6625 15.4545H25.3556L22.9409 30H19.1625ZM32.552 30.3977C31.2263 30.3977 30.1301 30.0947 29.2637 29.4886C28.3972 28.8778 27.7982 28.0019 27.4668 26.8608C27.1354 25.7197 27.1069 24.3513 27.3816 22.7557C27.6562 21.1553 28.1462 19.7964 28.8517 18.679C29.562 17.5616 30.4426 16.7116 31.4938 16.1293C32.5497 15.5469 33.7357 15.2557 35.052 15.2557C36.3683 15.2557 37.4573 15.5469 38.3191 16.1293C39.1808 16.7116 39.7798 17.5616 40.1159 18.679C40.4521 19.7917 40.4876 21.1506 40.2225 22.7557C39.9573 24.3561 39.4696 25.7268 38.7594 26.8679C38.0539 28.009 37.1709 28.8826 36.1103 29.4886C35.0544 30.0947 33.8683 30.3977 32.552 30.3977ZM33.0918 27.1875C33.7736 27.1875 34.3844 26.8324 34.9242 26.1222C35.4687 25.4072 35.8712 24.285 36.1316 22.7557C36.302 21.7614 36.3423 20.947 36.2523 20.3125C36.1623 19.6733 35.9682 19.2022 35.6699 18.8991C35.3716 18.5914 34.9952 18.4375 34.5407 18.4375C33.8588 18.4375 33.2386 18.7855 32.6799 19.4815C32.1259 20.1728 31.7234 21.2642 31.4725 22.7557C31.302 23.7784 31.2641 24.6165 31.3588 25.2699C31.4535 25.9233 31.6524 26.4062 31.9554 26.7188C32.2585 27.0312 32.6373 27.1875 33.0918 27.1875Z" fill="black"/>
<line x1="38.567" y1="36.6785" x2="54.6915" y2="8.74999" stroke="#2B4562"/>
</svg>
