<svg width="100" height="37" viewBox="0 0 100 37" fill="none" xmlns="http://www.w3.org/2000/svg">
<rect x="1.5" y="7.5" width="97" height="28" rx="13.5" fill="black" stroke="#DC0000" stroke-width="3"/>
<path d="M55.9458 29V15.1818H58.0307V27.2053H64.2921V29H55.9458ZM66.6705 29V15.1818H75.3338V16.9766H68.7553V21.1868H74.8817V22.9748H68.7553V27.2053H75.4148V29H66.6705ZM89.5956 19.6754H87.4905C87.4095 19.2256 87.2588 18.8298 87.0384 18.4879C86.818 18.1461 86.5481 17.8559 86.2288 17.6175C85.9094 17.3791 85.5518 17.1992 85.156 17.0778C84.7646 16.9563 84.3486 16.8956 83.9078 16.8956C83.1116 16.8956 82.3986 17.0958 81.7689 17.4961C81.1437 17.8964 80.6489 18.4834 80.2845 19.2571C79.9247 20.0308 79.7448 20.9754 79.7448 22.0909C79.7448 23.2154 79.9247 24.1645 80.2845 24.9382C80.6489 25.7119 81.1459 26.2966 81.7757 26.6925C82.4054 27.0883 83.1138 27.2862 83.901 27.2862C84.3373 27.2862 84.7512 27.2277 85.1425 27.1108C85.5383 26.9893 85.8959 26.8117 86.2153 26.5778C86.5347 26.3439 86.8045 26.0582 87.0249 25.7209C87.2499 25.379 87.405 24.9877 87.4905 24.5469L89.5956 24.5536C89.4832 25.2328 89.265 25.8581 88.9411 26.4293C88.6218 26.9961 88.2102 27.4864 87.7064 27.9002C87.2071 28.3095 86.6359 28.6267 85.9926 28.8516C85.3494 29.0765 84.6477 29.1889 83.8875 29.1889C82.691 29.1889 81.625 28.9055 80.6894 28.3388C79.7538 27.7675 79.0161 26.9511 78.4763 25.8896C77.941 24.828 77.6734 23.5618 77.6734 22.0909C77.6734 20.6155 77.9433 19.3493 78.483 18.2923C79.0228 17.2307 79.7605 16.4165 80.6961 15.8498C81.6317 15.2785 82.6955 14.9929 83.8875 14.9929C84.6207 14.9929 85.3044 15.0986 85.9387 15.31C86.5774 15.5169 87.1509 15.8228 87.6592 16.2276C88.1675 16.628 88.588 17.1183 88.9209 17.6985C89.2538 18.2743 89.4787 18.9332 89.5956 19.6754Z" fill="#DC0000"/>
<path d="M39 36L55.4545 9H22.5455L39 36Z" fill="#DC0000"/>
<path d="M0 21C0 12.7157 6.71573 6 15 6H39V37H15C6.71573 37 0 30.2843 0 22V21Z" fill="#DC0000"/>
<path d="M23.698 15.4545L21.2832 30H17.3343L19.1525 19.0909H19.0673L15.573 20.9943L16.1127 17.642L20.0616 15.4545H23.698ZM30.4913 30.1989C29.6201 30.1989 28.8175 30.0592 28.0836 29.7798C27.3497 29.5005 26.7318 29.0625 26.2299 28.4659C25.728 27.8646 25.3848 27.0881 25.2001 26.1364C25.0154 25.1847 25.0368 24.0388 25.264 22.6989C25.4582 21.5388 25.7778 20.5019 26.2228 19.5881C26.6679 18.6695 27.2148 17.8883 27.8635 17.2443C28.5121 16.5956 29.2437 16.1032 30.0581 15.767C30.8725 15.4261 31.746 15.2557 32.6788 15.2557C33.7583 15.2557 34.6793 15.4593 35.4416 15.8665C36.2086 16.2689 36.7863 16.8134 37.1745 17.5C37.5628 18.1818 37.7309 18.9394 37.6788 19.7727H33.8436C33.8436 19.3513 33.7039 19.053 33.4245 18.8778C33.1452 18.6979 32.8114 18.608 32.4231 18.608C31.5661 18.608 30.863 18.9867 30.3137 19.7443C29.7645 20.4972 29.3786 21.4631 29.1561 22.642L29.2697 22.4432C29.5301 21.9981 29.8663 21.6241 30.2782 21.321C30.6949 21.018 31.1542 20.7884 31.6561 20.6321C32.1627 20.4759 32.6835 20.3977 33.2186 20.3977C34.1229 20.3977 34.8829 20.6061 35.4984 21.0227C36.1139 21.4394 36.5519 22.0099 36.8123 22.7344C37.0727 23.4588 37.1248 24.2803 36.9686 25.1989C36.8029 26.2121 36.4193 27.0928 35.818 27.8409C35.2167 28.589 34.4567 29.169 33.5382 29.581C32.6196 29.9929 31.604 30.1989 30.4913 30.1989ZM30.6333 27.2159C31.0547 27.2159 31.4477 27.1188 31.8123 26.9247C32.1816 26.7259 32.4894 26.456 32.7356 26.1151C32.9818 25.7694 33.1333 25.3788 33.1902 24.9432C33.247 24.5739 33.2186 24.2495 33.1049 23.9702C32.996 23.6861 32.8161 23.4659 32.5652 23.3097C32.3142 23.1487 32.0017 23.0682 31.6277 23.0682C31.3199 23.0682 31.024 23.125 30.7399 23.2386C30.4558 23.3523 30.1977 23.5109 29.9657 23.7145C29.7337 23.9181 29.5396 24.1596 29.3833 24.4389C29.2271 24.7135 29.1229 25.0142 29.0708 25.3409C29.0188 25.7244 29.0495 26.0559 29.1632 26.3352C29.2768 26.6146 29.4591 26.8324 29.71 26.9886C29.9657 27.1402 30.2735 27.2159 30.6333 27.2159Z" fill="black"/>
<line x1="38.567" y1="36.6785" x2="54.6915" y2="8.74999" stroke="#DC0000"/>
</svg>
