<svg width="100" height="37" viewBox="0 0 100 37" fill="none" xmlns="http://www.w3.org/2000/svg">
<rect x="1.5" y="7.5" width="97" height="28" rx="13.5" fill="black" stroke="white" stroke-width="3"/>
<path d="M51.5494 16.1818H54.0795L58.4787 26.9233H58.6406L63.0398 16.1818H65.57V30H63.5863V20.0007H63.4581L59.3828 29.9798H57.7365L53.6612 19.994H53.533V30H51.5494V16.1818ZM69.7684 30H67.5553L72.528 16.1818H74.9367L79.9094 30H77.6963L73.7897 18.6918H73.6817L69.7684 30ZM70.1395 24.5888H77.3184V26.343H70.1395V24.5888ZM90.607 20.5472C90.4765 20.1379 90.3011 19.7713 90.0807 19.4474C89.8648 19.1191 89.6061 18.8402 89.3048 18.6108C89.0034 18.3769 88.6593 18.1992 88.2725 18.0778C87.8901 17.9563 87.4695 17.8956 87.0107 17.8956C86.2326 17.8956 85.5309 18.0958 84.9056 18.4961C84.2804 18.8964 83.7856 19.4834 83.4213 20.2571C83.0614 21.0263 82.8815 21.9686 82.8815 23.0842C82.8815 24.2042 83.0637 25.151 83.428 25.9247C83.7923 26.6984 84.2916 27.2854 84.9259 27.6857C85.5601 28.0861 86.282 28.2862 87.0917 28.2862C87.8429 28.2862 88.4974 28.1333 89.0551 27.8274C89.6174 27.5215 90.0515 27.0897 90.3573 26.532C90.6677 25.9697 90.8229 25.3085 90.8229 24.5483L91.3627 24.6495H87.4088V22.929H92.8403V24.5011C92.8403 25.6616 92.5929 26.6692 92.0981 27.5238C91.6078 28.3739 90.9286 29.0307 90.0605 29.494C89.1968 29.9573 88.2072 30.1889 87.0917 30.1889C85.8412 30.1889 84.7437 29.901 83.7991 29.3253C82.859 28.7495 82.1258 27.9331 81.5995 26.8761C81.0732 25.8145 80.8101 24.555 80.8101 23.0977C80.8101 21.9956 80.963 21.006 81.2689 20.1289C81.5748 19.2518 82.0044 18.5073 82.5576 17.8956C83.1154 17.2794 83.7699 16.8093 84.521 16.4854C85.2767 16.1571 86.1021 15.9929 86.9972 15.9929C87.7439 15.9929 88.4389 16.1031 89.0821 16.3235C89.7298 16.5439 90.3056 16.8565 90.8094 17.2614C91.3177 17.6662 91.7383 18.1475 92.0711 18.7053C92.404 19.2585 92.6289 19.8725 92.7458 20.5472H90.607Z" fill="white"/>
<path d="M39 36L55.4545 9H22.5455L39 36Z" fill="white"/>
<path d="M0 21C0 12.7157 6.71573 6 15 6H39V37H15C6.71573 37 0 30.2843 0 22V21Z" fill="white"/>
<path d="M13.4885 30L13.9572 27.1591L20.1362 22.6705C20.5481 22.3722 20.9032 22.0928 21.2015 21.8324C21.5046 21.5672 21.7484 21.295 21.9331 21.0156C22.1177 20.7363 22.2385 20.4261 22.2953 20.0852C22.3568 19.7112 22.3284 19.3916 22.21 19.1264C22.0964 18.8565 21.9118 18.6506 21.6561 18.5085C21.4004 18.3665 21.0926 18.2955 20.7328 18.2955C20.3682 18.2955 20.0344 18.3688 19.7314 18.5156C19.4283 18.6624 19.175 18.8778 18.9714 19.1619C18.7725 19.446 18.64 19.7917 18.5737 20.1989H14.8237C14.9941 19.1761 15.3706 18.2955 15.9529 17.5568C16.5401 16.8182 17.2834 16.25 18.1831 15.8523C19.0874 15.4545 20.103 15.2557 21.2299 15.2557C22.3947 15.2557 23.3748 15.4427 24.1703 15.8168C24.9657 16.1861 25.541 16.7069 25.8961 17.3793C26.256 18.0516 26.3578 18.84 26.2015 19.7443C26.1068 20.303 25.8961 20.857 25.5694 21.4062C25.2475 21.9555 24.729 22.5663 24.014 23.2386C23.3038 23.9062 22.319 24.7017 21.0595 25.625L19.5112 26.7614L19.497 26.8466H25.1788L24.6532 30H13.4885ZM27.0716 30L34.6568 18.6932L34.6852 18.608H27.9806L28.492 15.4545H39.2875L38.7761 18.608L31.1341 30H27.0716Z" fill="black"/>
<line x1="38.567" y1="36.6785" x2="54.6915" y2="8.74999" stroke="white"/>
</svg>
