<svg width="100" height="37" viewBox="0 0 100 37" fill="none" xmlns="http://www.w3.org/2000/svg">
<rect x="1.5" y="7.5" width="97" height="28" rx="13.5" fill="black" stroke="#FF8700" stroke-width="3"/>
<path d="M64.1497 16.1818V30H62.2335L55.2097 19.8658H55.0815V30H52.9966V16.1818H54.9263L61.9569 26.3295H62.085V16.1818H64.1497ZM79.1942 23.0909C79.1942 24.5663 78.9243 25.8348 78.3845 26.8963C77.8447 27.9534 77.1048 28.7675 76.1647 29.3388C75.2291 29.9055 74.1653 30.1889 72.9733 30.1889C71.7768 30.1889 70.7085 29.9055 69.7684 29.3388C68.8328 28.7675 68.0951 27.9511 67.5553 26.8896C67.0155 25.828 66.7456 24.5618 66.7456 23.0909C66.7456 21.6155 67.0155 20.3493 67.5553 19.2923C68.0951 18.2307 68.8328 17.4165 69.7684 16.8498C70.7085 16.2785 71.7768 15.9929 72.9733 15.9929C74.1653 15.9929 75.2291 16.2785 76.1647 16.8498C77.1048 17.4165 77.8447 18.2307 78.3845 19.2923C78.9243 20.3493 79.1942 21.6155 79.1942 23.0909ZM77.1295 23.0909C77.1295 21.9664 76.9474 21.0195 76.583 20.2504C76.2232 19.4767 75.7284 18.8919 75.0986 18.4961C74.4734 18.0958 73.7649 17.8956 72.9733 17.8956C72.1771 17.8956 71.4664 18.0958 70.8412 18.4961C70.2159 18.8919 69.7211 19.4767 69.3568 20.2504C68.997 21.0195 68.817 21.9664 68.817 23.0909C68.817 24.2154 68.997 25.1645 69.3568 25.9382C69.7211 26.7074 70.2159 27.2921 70.8412 27.6925C71.4664 28.0883 72.1771 28.2862 72.9733 28.2862C73.7649 28.2862 74.4734 28.0883 75.0986 27.6925C75.7284 27.2921 76.2232 26.7074 76.583 25.9382C76.9474 25.1645 77.1295 24.2154 77.1295 23.0909ZM81.7935 30V16.1818H86.7189C87.7895 16.1818 88.6779 16.3662 89.3841 16.7351C90.0948 17.1039 90.6255 17.6145 90.9764 18.2667C91.3272 18.9144 91.5027 19.6634 91.5027 20.5135C91.5027 21.3591 91.325 22.1036 90.9696 22.7468C90.6188 23.3855 90.088 23.8826 89.3773 24.2379C88.6711 24.5933 87.7827 24.771 86.7122 24.771H82.981V22.9762H86.5233C87.198 22.9762 87.7467 22.8795 88.1696 22.6861C88.5969 22.4927 88.9095 22.2115 89.1074 21.8427C89.3053 21.4738 89.4043 21.0308 89.4043 20.5135C89.4043 19.9917 89.3031 19.5397 89.1007 19.1573C88.9028 18.775 88.5901 18.4826 88.1628 18.2802C87.74 18.0733 87.1845 17.9698 86.4963 17.9698H83.8784V30H81.7935ZM88.6149 23.7656L92.0289 30H89.6539L86.3074 23.7656H88.6149Z" fill="#FF8700"/>
<path d="M39 36L55.4545 9H22.5455L39 36Z" fill="#FF8700"/>
<path d="M0 21C0 12.7157 6.71573 6 15 6H39V37H15C6.71573 37 0 30.2843 0 22V21Z" fill="#FF8700"/>
<path d="M19.7626 27.7273L20.274 24.6591L27.6603 15.4545H30.4444L29.7626 19.5455H28.1717L24.1944 24.5455L24.166 24.6591H32.8024L32.291 27.7273H19.7626ZM26.4672 30L27.0069 26.7898L27.3194 25.4545L28.9672 15.4545H32.6603L30.2456 30H26.4672Z" fill="black"/>
<line x1="38.567" y1="36.6785" x2="54.6915" y2="8.74999" stroke="#FF8700"/>
</svg>
