<svg width="100" height="37" viewBox="0 0 100 37" fill="none" xmlns="http://www.w3.org/2000/svg">
<rect x="1.5" y="7.5" width="97" height="28" rx="13.5" fill="black" stroke="#0090FF" stroke-width="3"/>
<path d="M63.9329 22.0909C63.9329 23.5663 63.663 24.8348 63.1233 25.8963C62.5835 26.9534 61.8436 27.7675 60.9035 28.3388C59.9678 28.9055 58.904 29.1889 57.712 29.1889C56.5156 29.1889 55.4473 28.9055 54.5071 28.3388C53.5715 27.7675 52.8339 26.9511 52.2941 25.8896C51.7543 24.828 51.4844 23.5618 51.4844 22.0909C51.4844 20.6155 51.7543 19.3493 52.2941 18.2923C52.8339 17.2307 53.5715 16.4165 54.5071 15.8498C55.4473 15.2785 56.5156 14.9929 57.712 14.9929C58.904 14.9929 59.9678 15.2785 60.9035 15.8498C61.8436 16.4165 62.5835 17.2307 63.1233 18.2923C63.663 19.3493 63.9329 20.6155 63.9329 22.0909ZM61.8683 22.0909C61.8683 20.9664 61.6861 20.0195 61.3218 19.2504C60.9619 18.4767 60.4671 17.8919 59.8374 17.4961C59.2122 17.0958 58.5037 16.8956 57.712 16.8956C56.9159 16.8956 56.2052 17.0958 55.5799 17.4961C54.9547 17.8919 54.4599 18.4767 54.0956 19.2504C53.7357 20.0195 53.5558 20.9664 53.5558 22.0909C53.5558 23.2154 53.7357 24.1645 54.0956 24.9382C54.4599 25.7074 54.9547 26.2921 55.5799 26.6925C56.2052 27.0883 56.9159 27.2862 57.712 27.2862C58.5037 27.2862 59.2122 27.0883 59.8374 26.6925C60.4671 26.2921 60.9619 25.7074 61.3218 24.9382C61.6861 24.1645 61.8683 23.2154 61.8683 22.0909ZM78.0092 19.6754H75.9041C75.8231 19.2256 75.6724 18.8298 75.452 18.4879C75.2316 18.1461 74.9617 17.8559 74.6424 17.6175C74.323 17.3791 73.9654 17.1992 73.5696 17.0778C73.1782 16.9563 72.7621 16.8956 72.3213 16.8956C71.5252 16.8956 70.8122 17.0958 70.1825 17.4961C69.5572 17.8964 69.0625 18.4834 68.6981 19.2571C68.3383 20.0308 68.1583 20.9754 68.1583 22.0909C68.1583 23.2154 68.3383 24.1645 68.6981 24.9382C69.0625 25.7119 69.5595 26.2966 70.1892 26.6925C70.819 27.0883 71.5274 27.2862 72.3146 27.2862C72.7509 27.2862 73.1647 27.2277 73.5561 27.1108C73.9519 26.9893 74.3095 26.8117 74.6289 26.5778C74.9482 26.3439 75.2181 26.0582 75.4385 25.7209C75.6634 25.379 75.8186 24.9877 75.9041 24.5469L78.0092 24.5536C77.8967 25.2328 77.6786 25.8581 77.3547 26.4293C77.0353 26.9961 76.6238 27.4864 76.12 27.9002C75.6207 28.3095 75.0494 28.6267 74.4062 28.8516C73.763 29.0765 73.0613 29.1889 72.3011 29.1889C71.1046 29.1889 70.0385 28.9055 69.1029 28.3388C68.1673 27.7675 67.4296 26.9511 66.8899 25.8896C66.3546 24.828 66.087 23.5618 66.087 22.0909C66.087 20.6155 66.3568 19.3493 66.8966 18.2923C67.4364 17.2307 68.1741 16.4165 69.1097 15.8498C70.0453 15.2785 71.1091 14.9929 72.3011 14.9929C73.0343 14.9929 73.718 15.0986 74.3522 15.31C74.991 15.5169 75.5645 15.8228 76.0728 16.2276C76.581 16.628 77.0016 17.1183 77.3345 17.6985C77.6673 18.2743 77.8922 18.9332 78.0092 19.6754ZM92.5071 22.0909C92.5071 23.5663 92.2373 24.8348 91.6975 25.8963C91.1577 26.9534 90.4178 27.7675 89.4777 28.3388C88.5421 28.9055 87.4783 29.1889 86.2863 29.1889C85.0898 29.1889 84.0215 28.9055 83.0814 28.3388C82.1458 27.7675 81.4081 26.9511 80.8683 25.8896C80.3285 24.828 80.0586 23.5618 80.0586 22.0909C80.0586 20.6155 80.3285 19.3493 80.8683 18.2923C81.4081 17.2307 82.1458 16.4165 83.0814 15.8498C84.0215 15.2785 85.0898 14.9929 86.2863 14.9929C87.4783 14.9929 88.5421 15.2785 89.4777 15.8498C90.4178 16.4165 91.1577 17.2307 91.6975 18.2923C92.2373 19.3493 92.5071 20.6155 92.5071 22.0909ZM90.4425 22.0909C90.4425 20.9664 90.2603 20.0195 89.896 19.2504C89.5361 18.4767 89.0414 17.8919 88.4116 17.4961C87.7864 17.0958 87.0779 16.8956 86.2863 16.8956C85.4901 16.8956 84.7794 17.0958 84.1542 17.4961C83.5289 17.8919 83.0341 18.4767 82.6698 19.2504C82.3099 20.0195 82.13 20.9664 82.13 22.0909C82.13 23.2154 82.3099 24.1645 82.6698 24.9382C83.0341 25.7074 83.5289 26.2921 84.1542 26.6925C84.7794 27.0883 85.4901 27.2862 86.2863 27.2862C87.0779 27.2862 87.7864 27.0883 88.4116 26.6925C89.0414 26.2921 89.5361 25.7074 89.896 24.9382C90.2603 24.1645 90.4425 23.2154 90.4425 22.0909Z" fill="#0090FF"/>
<path d="M39 36L55.4545 9H22.5455L39 36Z" fill="#0090FF"/>
<path d="M0 21C0 12.7157 6.71573 6 15 6H39V37H15C6.71573 37 0 30.2843 0 22V21Z" fill="#0090FF"/>
<path d="M20.1025 30.1989C18.9187 30.1989 17.9031 30.0024 17.0556 29.6094C16.208 29.2116 15.583 28.6648 15.1806 27.9688C14.7828 27.2727 14.6621 26.4725 14.8184 25.5682H18.7388C18.6867 25.8475 18.7222 26.0985 18.8453 26.321C18.9732 26.5388 19.1673 26.7093 19.4277 26.8324C19.6882 26.9555 19.9888 27.017 20.3297 27.017C20.7369 27.017 21.1039 26.9342 21.4306 26.7685C21.762 26.6027 22.0319 26.3873 22.2402 26.1222C22.4533 25.857 22.5835 25.5777 22.6309 25.2841C22.6829 24.9811 22.6332 24.7348 22.4817 24.5455C22.3302 24.3513 22.1053 24.2093 21.807 24.1193C21.5087 24.0246 21.1583 23.9773 20.7559 23.9773H19.1934L19.6479 21.25H21.04C21.4424 21.25 21.8117 21.1766 22.1479 21.0298C22.4841 20.883 22.7634 20.6818 22.986 20.4261C23.2085 20.1657 23.3458 19.8722 23.3979 19.5455C23.4405 19.2945 23.4192 19.0767 23.334 18.892C23.2535 18.7027 23.1091 18.5559 22.9007 18.4517C22.6971 18.3475 22.4273 18.2955 22.0911 18.2955C21.7265 18.2955 21.3761 18.3594 21.04 18.4872C20.7038 18.6151 20.4221 18.7926 20.1948 19.0199C19.9675 19.2472 19.8326 19.5076 19.79 19.8011H16.04C16.1867 18.911 16.5537 18.125 17.1408 17.4432C17.7279 16.7614 18.4666 16.2263 19.3567 15.8381C20.2516 15.4498 21.2293 15.2557 22.29 15.2557C23.3979 15.2557 24.3401 15.4593 25.1167 15.8665C25.8932 16.2737 26.4637 16.8134 26.8283 17.4858C27.1929 18.1581 27.3089 18.892 27.1763 19.6875C27.0343 20.5445 26.6484 21.1932 26.0186 21.6335C25.3889 22.0739 24.6006 22.3343 23.6536 22.4148V22.5284C24.6858 22.6468 25.4836 23.0256 26.0471 23.6648C26.6105 24.304 26.8165 25.09 26.665 26.0227C26.5371 26.8182 26.1702 27.5308 25.5641 28.1605C24.958 28.7902 24.1815 29.2874 23.2346 29.652C22.2923 30.0166 21.2483 30.1989 20.1025 30.1989ZM37.2917 15.4545L34.877 30H30.9281L32.7463 19.0909H32.661L29.1667 20.9943L29.7065 17.642L33.6554 15.4545H37.2917Z" fill="black"/>
<line x1="38.567" y1="36.6785" x2="54.6915" y2="8.74999" stroke="#0090FF"/>
</svg>
