<svg width="100" height="37" viewBox="0 0 100 37" fill="none" xmlns="http://www.w3.org/2000/svg">
<rect x="1.5" y="7.5" width="97" height="28" rx="13.5" fill="black" stroke="#0600EF" stroke-width="3"/>
<path d="M55.5943 30V16.1818H60.5197C61.5948 16.1818 62.4854 16.3775 63.1916 16.7688C63.8978 17.1602 64.4263 17.6954 64.7772 18.3746C65.128 19.0494 65.3034 19.8095 65.3034 20.6552C65.3034 21.5053 65.1258 22.27 64.7704 22.9492C64.4196 23.6239 63.8888 24.1592 63.1781 24.555C62.4719 24.9464 61.5835 25.142 60.513 25.142H57.1259V23.3743H60.324C61.0033 23.3743 61.5543 23.2573 61.9771 23.0234C62.3999 22.785 62.7103 22.4612 62.9082 22.0518C63.1061 21.6425 63.2051 21.177 63.2051 20.6552C63.2051 20.1334 63.1061 19.6701 62.9082 19.2653C62.7103 18.8604 62.3977 18.5433 61.9703 18.3139C61.5475 18.0845 60.9898 17.9698 60.2971 17.9698H57.6792V30H55.5943ZM67.7476 30V16.1818H76.411V17.9766H69.8325V22.1868H75.9589V23.9748H69.8325V28.2053H76.4919V30H67.7476ZM79.1958 30V16.1818H84.1213C85.1918 16.1818 86.0802 16.3662 86.7864 16.7351C87.4971 17.1039 88.0279 17.6145 88.3787 18.2667C88.7296 18.9144 88.905 19.6634 88.905 20.5135C88.905 21.3591 88.7273 22.1036 88.372 22.7468C88.0211 23.3855 87.4904 23.8826 86.7797 24.2379C86.0734 24.5933 85.1851 24.771 84.1145 24.771H80.3833V22.9762H83.9256C84.6003 22.9762 85.1491 22.8795 85.5719 22.6861C85.9992 22.4927 86.3118 22.2115 86.5098 21.8427C86.7077 21.4738 86.8066 21.0308 86.8066 20.5135C86.8066 19.9917 86.7054 19.5397 86.503 19.1573C86.3051 18.775 85.9925 18.4826 85.5652 18.2802C85.1423 18.0733 84.5868 17.9698 83.8986 17.9698H81.2807V30H79.1958ZM86.0172 23.7656L89.4313 30H87.0563L83.7097 23.7656H86.0172Z" fill="#0600EF"/>
<path d="M39 36L55.4545 9H22.5455L39 36Z" fill="#0600EF"/>
<path d="M0 21C0 12.7157 6.71573 6 15 6H39V37H15C6.71573 37 0 30.2843 0 22V21Z" fill="#0600EF"/>
<path d="M25.9851 15.4545L23.5703 30H19.6214L21.4396 19.0909H21.3544L17.8601 20.9943L18.3999 17.642L22.3487 15.4545H25.9851ZM36.1023 15.4545L33.6875 30H29.7386L31.5568 19.0909H31.4716L27.9773 20.9943L28.517 17.642L32.4659 15.4545H36.1023Z" fill="black"/>
<line x1="38.567" y1="36.6785" x2="54.6915" y2="8.74999" stroke="#0600EF"/>
</svg>
