<svg width="100" height="37" viewBox="0 0 100 37" fill="none" xmlns="http://www.w3.org/2000/svg">
<rect x="1.5" y="7.5" width="97" height="28" rx="13.5" fill="black" stroke="#FF8700" stroke-width="3"/>
<path d="M58.729 30V16.1818H63.6545C64.7295 16.1818 65.6201 16.3775 66.3263 16.7688C67.0326 17.1602 67.5611 17.6954 67.9119 18.3746C68.2628 19.0494 68.4382 19.8095 68.4382 20.6552C68.4382 21.5053 68.2605 22.27 67.9052 22.9492C67.5543 23.6239 67.0236 24.1592 66.3129 24.555C65.6067 24.9464 64.7183 25.142 63.6477 25.142H60.2607V23.3743H63.4588C64.138 23.3743 64.689 23.2573 65.1119 23.0234C65.5347 22.785 65.8451 22.4612 66.043 22.0518C66.2409 21.6425 66.3398 21.177 66.3398 20.6552C66.3398 20.1334 66.2409 19.6701 66.043 19.2653C65.8451 18.8604 65.5324 18.5433 65.1051 18.3139C64.6823 18.0845 64.1245 17.9698 63.4318 17.9698H60.8139V30H58.729ZM72.9672 16.1818V30H70.8824V16.1818H72.9672ZM77.1707 30H74.9577L79.9303 16.1818H82.339L87.3117 30H85.0986L81.192 18.6918H81.0841L77.1707 30ZM77.5418 24.5888H84.7208V26.343H77.5418V24.5888Z" fill="#FF8700"/>
<path d="M39 36L55.4545 9H22.5455L39 36Z" fill="#FF8700"/>
<path d="M0 21C0 12.7157 6.71573 6 15 6H39V37H15C6.71573 37 0 30.2843 0 22V21Z" fill="#FF8700"/>
<path d="M19.9941 30.1989C18.8246 30.1989 17.8066 30.0189 16.9402 29.6591C16.0784 29.2945 15.4345 28.7997 15.0083 28.1747C14.5822 27.545 14.4354 26.8371 14.568 26.0511C14.6722 25.4545 14.916 24.9077 15.2995 24.4105C15.6878 23.9134 16.166 23.4991 16.7342 23.1676C17.3024 22.8362 17.9061 22.6231 18.5453 22.5284V22.4148C17.7593 22.2727 17.1461 21.9034 16.7058 21.3068C16.2702 20.7102 16.1163 20.0095 16.2441 19.2045C16.3672 18.4422 16.7176 17.7652 17.2953 17.1733C17.8777 16.5767 18.6163 16.108 19.5112 15.767C20.4108 15.4261 21.3957 15.2557 22.4657 15.2557C23.5358 15.2557 24.4615 15.4285 25.2427 15.7741C26.024 16.1151 26.6064 16.5838 26.9899 17.1804C27.3734 17.7723 27.5036 18.447 27.3805 19.2045C27.2479 20.0189 26.8668 20.7221 26.237 21.3139C25.6073 21.9058 24.8616 22.2727 23.9998 22.4148V22.5284C24.6106 22.6231 25.1433 22.8362 25.5978 23.1676C26.0571 23.4943 26.3957 23.9062 26.6135 24.4034C26.8313 24.9006 26.8881 25.4498 26.7839 26.0511C26.6513 26.8324 26.2702 27.5379 25.6404 28.1676C25.0107 28.7926 24.2058 29.2874 23.2257 29.652C22.2503 30.0166 21.1731 30.1989 19.9941 30.1989ZM20.4487 27.4716C20.8227 27.4716 21.166 27.3958 21.4785 27.2443C21.791 27.0881 22.0514 26.8774 22.2598 26.6122C22.4728 26.3423 22.6078 26.0417 22.6646 25.7102C22.7214 25.3693 22.6883 25.0687 22.5652 24.8082C22.4421 24.5478 22.2456 24.3442 21.9757 24.1974C21.7105 24.0507 21.3909 23.9773 21.0169 23.9773C20.6428 23.9773 20.2972 24.053 19.9799 24.2045C19.6674 24.3513 19.407 24.5549 19.1987 24.8153C18.9904 25.0758 18.8578 25.3741 18.801 25.7102C18.7441 26.0464 18.7773 26.3494 18.9004 26.6193C19.0282 26.8845 19.2271 27.0928 19.497 27.2443C19.7669 27.3958 20.0841 27.4716 20.4487 27.4716ZM21.4714 21.25C21.8029 21.25 22.1059 21.1813 22.3805 21.044C22.6599 20.902 22.8919 20.7102 23.0765 20.4688C23.2612 20.2273 23.3796 19.9574 23.4316 19.6591C23.4837 19.3513 23.4577 19.0814 23.3535 18.8494C23.2493 18.6127 23.0813 18.428 22.8493 18.2955C22.6172 18.1629 22.3379 18.0966 22.0112 18.0966C21.6845 18.0966 21.3791 18.1652 21.095 18.3026C20.8156 18.4351 20.5789 18.6198 20.3848 18.8565C20.1954 19.0885 20.0746 19.3561 20.0225 19.6591C19.9705 19.9621 19.9989 20.2344 20.1078 20.4759C20.2167 20.7126 20.3871 20.902 20.6191 21.044C20.8559 21.1813 21.14 21.25 21.4714 21.25ZM37.4284 15.4545L35.0137 30H31.0648L32.883 19.0909H32.7978L29.3034 20.9943L29.8432 17.642L33.7921 15.4545H37.4284Z" fill="black"/>
<line x1="38.567" y1="36.6785" x2="54.6915" y2="8.74999" stroke="#FF8700"/>
</svg>
