<svg width="100" height="37" viewBox="0 0 100 37" fill="none" xmlns="http://www.w3.org/2000/svg">
<rect x="1.5" y="7.5" width="97" height="28" rx="13.5" fill="black" stroke="#2B4562" stroke-width="3"/>
<path d="M57.8487 30V16.1818H62.7741C63.8447 16.1818 64.733 16.3662 65.4392 16.7351C66.1499 17.1039 66.6807 17.6145 67.0316 18.2667C67.3824 18.9144 67.5578 19.6634 67.5578 20.5135C67.5578 21.3591 67.3802 22.1036 67.0248 22.7468C66.674 23.3855 66.1432 23.8826 65.4325 24.2379C64.7263 24.5933 63.8379 24.771 62.7674 24.771H59.0362V22.9762H62.5784C63.2532 22.9762 63.8019 22.8795 64.2247 22.6861C64.6521 22.4927 64.9647 22.2115 65.1626 21.8427C65.3605 21.4738 65.4595 21.0308 65.4595 20.5135C65.4595 19.9917 65.3583 19.5397 65.1559 19.1573C64.9579 18.775 64.6453 18.4826 64.218 18.2802C63.7952 18.0733 63.2397 17.9698 62.5514 17.9698H59.9335V30H57.8487ZM64.6701 23.7656L68.0841 30H65.7091L62.3625 23.7656H64.6701ZM72.1796 16.1818V30H70.0948V16.1818H72.1796ZM86.6928 20.6754H84.5877C84.5067 20.2256 84.356 19.8298 84.1356 19.4879C83.9152 19.1461 83.6453 18.8559 83.326 18.6175C83.0066 18.3791 82.649 18.1992 82.2532 18.0778C81.8618 17.9563 81.4457 17.8956 81.0049 17.8956C80.2088 17.8956 79.4958 18.0958 78.8661 18.4961C78.2408 18.8964 77.746 19.4834 77.3817 20.2571C77.0219 21.0308 76.8419 21.9754 76.8419 23.0909C76.8419 24.2154 77.0219 25.1645 77.3817 25.9382C77.746 26.7119 78.2431 27.2966 78.8728 27.6925C79.5026 28.0883 80.211 28.2862 80.9982 28.2862C81.4345 28.2862 81.8483 28.2277 82.2397 28.1108C82.6355 27.9893 82.9931 27.8117 83.3125 27.5778C83.6318 27.3439 83.9017 27.0582 84.1221 26.7209C84.347 26.379 84.5022 25.9877 84.5877 25.5469L86.6928 25.5536C86.5803 26.2328 86.3622 26.8581 86.0383 27.4293C85.7189 27.9961 85.3074 28.4864 84.8036 28.9002C84.3043 29.3095 83.733 29.6267 83.0898 29.8516C82.4466 30.0765 81.7449 30.1889 80.9847 30.1889C79.7882 30.1889 78.7221 29.9055 77.7865 29.3388C76.8509 28.7675 76.1132 27.9511 75.5735 26.8896C75.0382 25.828 74.7706 24.5618 74.7706 23.0909C74.7706 21.6155 75.0404 20.3493 75.5802 19.2923C76.12 18.2307 76.8577 17.4165 77.7933 16.8498C78.7289 16.2785 79.7927 15.9929 80.9847 15.9929C81.7179 15.9929 82.4016 16.0986 83.0358 16.31C83.6746 16.5169 84.2481 16.8228 84.7563 17.2276C85.2646 17.628 85.6852 18.1183 86.0181 18.6985C86.3509 19.2743 86.5758 19.9332 86.6928 20.6754Z" fill="#2B4562"/>
<path d="M39 36L55.4545 9H22.5455L39 36Z" fill="#2B4562"/>
<path d="M0 21C0 12.7157 6.71573 6 15 6H39V37H15C6.71573 37 0 30.2843 0 22V21Z" fill="#2B4562"/>
<path d="M18.7825 30.3977C17.4567 30.3977 16.3606 30.0947 15.4941 29.4886C14.6277 28.8778 14.0287 28.0019 13.6973 26.8608C13.3658 25.7197 13.3374 24.3513 13.612 22.7557C13.8867 21.1553 14.3767 19.7964 15.0822 18.679C15.7924 17.5616 16.6731 16.7116 17.7243 16.1293C18.7801 15.5469 19.9662 15.2557 21.2825 15.2557C22.5988 15.2557 23.6878 15.5469 24.5495 16.1293C25.4113 16.7116 26.0102 17.5616 26.3464 18.679C26.6826 19.7917 26.7181 21.1506 26.4529 22.7557C26.1878 24.3561 25.7001 25.7268 24.9899 26.8679C24.2844 28.009 23.4013 28.8826 22.3407 29.4886C21.2849 30.0947 20.0988 30.3977 18.7825 30.3977ZM19.3223 27.1875C20.0041 27.1875 20.6149 26.8324 21.1547 26.1222C21.6992 25.4072 22.1016 24.285 22.362 22.7557C22.5325 21.7614 22.5727 20.947 22.4828 20.3125C22.3928 19.6733 22.1987 19.2022 21.9004 18.8991C21.6021 18.5914 21.2257 18.4375 20.7711 18.4375C20.0893 18.4375 19.469 18.7855 18.9103 19.4815C18.3564 20.1728 17.9539 21.2642 17.7029 22.7557C17.5325 23.7784 17.4946 24.6165 17.5893 25.2699C17.684 25.9233 17.8829 26.4062 18.1859 26.7188C18.4889 27.0312 18.8677 27.1875 19.3223 27.1875ZM32.9657 30.1989C31.782 30.1989 30.7664 30.0024 29.9189 29.6094C29.0713 29.2116 28.4463 28.6648 28.0439 27.9688C27.6461 27.2727 27.5254 26.4725 27.6816 25.5682H31.6021C31.55 25.8475 31.5855 26.0985 31.7086 26.321C31.8365 26.5388 32.0306 26.7093 32.291 26.8324C32.5514 26.9555 32.8521 27.017 33.193 27.017C33.6002 27.017 33.9672 26.9342 34.2939 26.7685C34.6253 26.6027 34.8952 26.3873 35.1035 26.1222C35.3166 25.857 35.4468 25.5777 35.4941 25.2841C35.5462 24.9811 35.4965 24.7348 35.345 24.5455C35.1935 24.3513 34.9686 24.2093 34.6703 24.1193C34.372 24.0246 34.0216 23.9773 33.6191 23.9773H32.0566L32.5112 21.25H33.9032C34.3057 21.25 34.675 21.1766 35.0112 21.0298C35.3474 20.883 35.6267 20.6818 35.8493 20.4261C36.0718 20.1657 36.2091 19.8722 36.2612 19.5455C36.3038 19.2945 36.2825 19.0767 36.1973 18.892C36.1168 18.7027 35.9724 18.5559 35.764 18.4517C35.5604 18.3475 35.2905 18.2955 34.9544 18.2955C34.5898 18.2955 34.2394 18.3594 33.9032 18.4872C33.5671 18.6151 33.2853 18.7926 33.0581 19.0199C32.8308 19.2472 32.6958 19.5076 32.6532 19.8011H28.9032C29.05 18.911 29.417 18.125 30.0041 17.4432C30.5912 16.7614 31.3298 16.2263 32.22 15.8381C33.1149 15.4498 34.0926 15.2557 35.1532 15.2557C36.2612 15.2557 37.2034 15.4593 37.9799 15.8665C38.7565 16.2737 39.327 16.8134 39.6916 17.4858C40.0562 18.1581 40.1722 18.892 40.0396 19.6875C39.8975 20.5445 39.5117 21.1932 38.8819 21.6335C38.2522 22.0739 37.4638 22.3343 36.5169 22.4148V22.5284C37.5491 22.6468 38.3469 23.0256 38.9103 23.6648C39.4738 24.304 39.6797 25.09 39.5282 26.0227C39.4004 26.8182 39.0334 27.5308 38.4274 28.1605C37.8213 28.7902 37.0448 29.2874 36.0978 29.652C35.1556 30.0166 34.1116 30.1989 32.9657 30.1989Z" fill="black"/>
<line x1="38.567" y1="36.6785" x2="54.6915" y2="8.74999" stroke="#2B4562"/>
</svg>
