<svg width="100" height="37" viewBox="0 0 100 37" fill="none" xmlns="http://www.w3.org/2000/svg">
<rect x="1.5" y="7.5" width="97" height="28" rx="13.5" fill="black" stroke="#00D2BE" stroke-width="3"/>
<path d="M54.7769 29V15.1818H59.7023C60.7729 15.1818 61.6613 15.3662 62.3675 15.7351C63.0782 16.1039 63.6089 16.6145 63.9598 17.2667C64.3106 17.9144 64.4861 18.6634 64.4861 19.5135C64.4861 20.3591 64.3084 21.1036 63.953 21.7468C63.6022 22.3855 63.0714 22.8826 62.3607 23.2379C61.6545 23.5933 60.7661 23.771 59.6956 23.771H55.9644V21.9762H59.5067C60.1814 21.9762 60.7301 21.8795 61.153 21.6861C61.5803 21.4927 61.8929 21.2115 62.0908 20.8427C62.2887 20.4738 62.3877 20.0308 62.3877 19.5135C62.3877 18.9917 62.2865 18.5397 62.0841 18.1573C61.8862 17.775 61.5735 17.4826 61.1462 17.2802C60.7234 17.0733 60.1679 16.9698 59.4797 16.9698H56.8618V29H54.7769ZM61.5983 22.7656L65.0123 29H62.6373L59.2907 22.7656H61.5983ZM75.909 15.1818H78.0006V24.2702C78.0006 25.2373 77.7735 26.0942 77.3192 26.8409C76.8648 27.5831 76.2261 28.1679 75.403 28.5952C74.5798 29.018 73.615 29.2294 72.5084 29.2294C71.4064 29.2294 70.4438 29.018 69.6207 28.5952C68.7975 28.1679 68.1588 27.5831 67.7045 26.8409C67.2501 26.0942 67.023 25.2373 67.023 24.2702V15.1818H69.1079V24.1016C69.1079 24.7268 69.2451 25.2823 69.5194 25.7681C69.7983 26.2539 70.1919 26.6362 70.7002 26.9151C71.2085 27.1895 71.8112 27.3267 72.5084 27.3267C73.2101 27.3267 73.8151 27.1895 74.3234 26.9151C74.8362 26.6362 75.2275 26.2539 75.4974 25.7681C75.7718 25.2823 75.909 24.7268 75.909 24.1016V15.1818ZM88.5684 18.8118C88.4964 18.1731 88.1995 17.6783 87.6777 17.3274C87.156 16.9721 86.4992 16.7944 85.7076 16.7944C85.1408 16.7944 84.6505 16.8844 84.2367 17.0643C83.8229 17.2397 83.5012 17.4826 83.2718 17.793C83.0469 18.0988 82.9345 18.4474 82.9345 18.8388C82.9345 19.1671 83.0109 19.4505 83.1639 19.6889C83.3213 19.9273 83.526 20.1275 83.7779 20.2894C84.0343 20.4469 84.3087 20.5795 84.601 20.6875C84.8934 20.791 85.1745 20.8764 85.4444 20.9439L86.7939 21.2947C87.2347 21.4027 87.6867 21.5489 88.15 21.7333C88.6133 21.9177 89.0429 22.1606 89.4387 22.462C89.8346 22.7634 90.1539 23.1367 90.3968 23.582C90.6442 24.0273 90.7679 24.5604 90.7679 25.1811C90.7679 25.9638 90.5655 26.6587 90.1607 27.266C89.7604 27.8732 89.1779 28.3523 88.4132 28.7031C87.653 29.054 86.7331 29.2294 85.6536 29.2294C84.619 29.2294 83.7239 29.0652 82.9682 28.7369C82.2125 28.4085 81.621 27.9429 81.1937 27.3402C80.7664 26.733 80.5302 26.0133 80.4853 25.1811H82.5769C82.6174 25.6804 82.7793 26.0965 83.0627 26.4293C83.3506 26.7577 83.7172 27.0028 84.1625 27.1648C84.6123 27.3222 85.1048 27.4009 85.6401 27.4009C86.2293 27.4009 86.7534 27.3087 87.2122 27.1243C87.6755 26.9354 88.0398 26.6745 88.3052 26.3416C88.5706 26.0043 88.7033 25.6107 88.7033 25.1609C88.7033 24.7515 88.5864 24.4164 88.3525 24.1555C88.123 23.8946 87.8104 23.6787 87.4146 23.5078C87.0233 23.3369 86.5802 23.1862 86.0854 23.0558L84.4526 22.6104C83.3461 22.3091 82.4689 21.866 81.8212 21.2812C81.178 20.6965 80.8564 19.9228 80.8564 18.9602C80.8564 18.1641 81.0723 17.4691 81.5041 16.8754C81.9359 16.2816 82.5207 15.8205 83.2583 15.4922C83.996 15.1593 84.8282 14.9929 85.7548 14.9929C86.6904 14.9929 87.5158 15.1571 88.231 15.4854C88.9507 15.8138 89.5175 16.2659 89.9313 16.8416C90.3451 17.4129 90.561 18.0696 90.579 18.8118H88.5684Z" fill="#00D2BE"/>
<path d="M39 36L55.4545 9H22.5455L39 36Z" fill="#00D2BE"/>
<path d="M0 21C0 12.7157 6.71573 6 15 6H39V37H15C6.71573 37 0 30.2843 0 22V21Z" fill="#00D2BE"/>
<path d="M18.6847 30.1989C17.8134 30.1989 17.0109 30.0592 16.277 29.7798C15.5431 29.5005 14.9252 29.0625 14.4233 28.4659C13.9214 27.8646 13.5781 27.0881 13.3935 26.1364C13.2088 25.1847 13.2301 24.0388 13.4574 22.6989C13.6515 21.5388 13.9711 20.5019 14.4162 19.5881C14.8613 18.6695 15.4081 17.8883 16.0568 17.2443C16.7055 16.5956 17.437 16.1032 18.2514 15.767C19.0658 15.4261 19.9394 15.2557 20.8722 15.2557C21.9517 15.2557 22.8726 15.4593 23.6349 15.8665C24.402 16.2689 24.9796 16.8134 25.3679 17.5C25.7562 18.1818 25.9242 18.9394 25.8722 19.7727H22.0369C22.0369 19.3513 21.8973 19.053 21.6179 18.8778C21.3385 18.6979 21.0047 18.608 20.6165 18.608C19.7595 18.608 19.0563 18.9867 18.5071 19.7443C17.9579 20.4972 17.572 21.4631 17.3494 22.642L17.4631 22.4432C17.7235 21.9981 18.0597 21.6241 18.4716 21.321C18.8883 21.018 19.3475 20.7884 19.8494 20.6321C20.3561 20.4759 20.8769 20.3977 21.4119 20.3977C22.3163 20.3977 23.0762 20.6061 23.6918 21.0227C24.3073 21.4394 24.7453 22.0099 25.0057 22.7344C25.2661 23.4588 25.3182 24.2803 25.1619 25.1989C24.9962 26.2121 24.6127 27.0928 24.0114 27.8409C23.41 28.589 22.6501 29.169 21.7315 29.581C20.813 29.9929 19.7973 30.1989 18.6847 30.1989ZM18.8267 27.2159C19.2481 27.2159 19.6411 27.1188 20.0057 26.9247C20.375 26.7259 20.6828 26.456 20.929 26.1151C21.1752 25.7694 21.3267 25.3788 21.3835 24.9432C21.4403 24.5739 21.4119 24.2495 21.2983 23.9702C21.1894 23.6861 21.0095 23.4659 20.7585 23.3097C20.5076 23.1487 20.1951 23.0682 19.821 23.0682C19.5133 23.0682 19.2173 23.125 18.9332 23.2386C18.6491 23.3523 18.3911 23.5109 18.1591 23.7145C17.9271 23.9181 17.733 24.1596 17.5767 24.4389C17.4205 24.7135 17.3163 25.0142 17.2642 25.3409C17.2121 25.7244 17.2429 26.0559 17.3565 26.3352C17.4702 26.6146 17.6525 26.8324 17.9034 26.9886C18.1591 27.1402 18.4669 27.2159 18.8267 27.2159ZM32.0067 30.1989C30.823 30.1989 29.8074 30.0024 28.9599 29.6094C28.1123 29.2116 27.4873 28.6648 27.0849 27.9688C26.6871 27.2727 26.5664 26.4725 26.7227 25.5682H30.6431C30.591 25.8475 30.6265 26.0985 30.7496 26.321C30.8775 26.5388 31.0716 26.7093 31.332 26.8324C31.5924 26.9555 31.8931 27.017 32.234 27.017C32.6412 27.017 33.0082 26.9342 33.3349 26.7685C33.6663 26.6027 33.9362 26.3873 34.1445 26.1222C34.3576 25.857 34.4878 25.5777 34.5352 25.2841C34.5872 24.9811 34.5375 24.7348 34.386 24.5455C34.2345 24.3513 34.0096 24.2093 33.7113 24.1193C33.413 24.0246 33.0626 23.9773 32.6602 23.9773H31.0977L31.5522 21.25H32.9442C33.3467 21.25 33.716 21.1766 34.0522 21.0298C34.3884 20.883 34.6677 20.6818 34.8903 20.4261C35.1128 20.1657 35.2501 19.8722 35.3022 19.5455C35.3448 19.2945 35.3235 19.0767 35.2383 18.892C35.1578 18.7027 35.0134 18.5559 34.805 18.4517C34.6014 18.3475 34.3316 18.2955 33.9954 18.2955C33.6308 18.2955 33.2804 18.3594 32.9442 18.4872C32.6081 18.6151 32.3263 18.7926 32.0991 19.0199C31.8718 19.2472 31.7369 19.5076 31.6942 19.8011H27.9442C28.091 18.911 28.458 18.125 29.0451 17.4432C29.6322 16.7614 30.3709 16.2263 31.261 15.8381C32.1559 15.4498 33.1336 15.2557 34.1942 15.2557C35.3022 15.2557 36.2444 15.4593 37.021 15.8665C37.7975 16.2737 38.368 16.8134 38.7326 17.4858C39.0972 18.1581 39.2132 18.892 39.0806 19.6875C38.9386 20.5445 38.5527 21.1932 37.9229 21.6335C37.2932 22.0739 36.5049 22.3343 35.5579 22.4148V22.5284C36.5901 22.6468 37.3879 23.0256 37.9513 23.6648C38.5148 24.304 38.7208 25.09 38.5692 26.0227C38.4414 26.8182 38.0745 27.5308 37.4684 28.1605C36.8623 28.7902 36.0858 29.2874 35.1388 29.652C34.1966 30.0166 33.1526 30.1989 32.0067 30.1989Z" fill="black"/>
<line x1="38.567" y1="36.6785" x2="54.6915" y2="8.74999" stroke="#00D2BE"/>
</svg>
