<svg width="100" height="37" viewBox="0 0 100 37" fill="none" xmlns="http://www.w3.org/2000/svg">
<rect x="1.5" y="7.5" width="97" height="28" rx="13.5" fill="black" stroke="#DC0000" stroke-width="3"/>
<path d="M66.2842 18.8118C66.2122 18.1731 65.9153 17.6783 65.3936 17.3274C64.8718 16.9721 64.2151 16.7944 63.4234 16.7944C62.8566 16.7944 62.3663 16.8844 61.9525 17.0643C61.5387 17.2397 61.2171 17.4826 60.9877 17.793C60.7628 18.0988 60.6503 18.4474 60.6503 18.8388C60.6503 19.1671 60.7268 19.4505 60.8797 19.6889C61.0371 19.9273 61.2418 20.1275 61.4937 20.2894C61.7501 20.4469 62.0245 20.5795 62.3169 20.6875C62.6092 20.791 62.8904 20.8764 63.1602 20.9439L64.5097 21.2947C64.9505 21.4027 65.4026 21.5489 65.8659 21.7333C66.3292 21.9177 66.7587 22.1606 67.1546 22.462C67.5504 22.7634 67.8698 23.1367 68.1127 23.582C68.3601 24.0273 68.4838 24.5604 68.4838 25.1811C68.4838 25.9638 68.2813 26.6587 67.8765 27.266C67.4762 27.8732 66.8937 28.3523 66.129 28.7031C65.3688 29.054 64.449 29.2294 63.3694 29.2294C62.3348 29.2294 61.4397 29.0652 60.684 28.7369C59.9284 28.4085 59.3369 27.9429 58.9095 27.3402C58.4822 26.733 58.2461 26.0133 58.2011 25.1811H60.2927C60.3332 25.6804 60.4951 26.0965 60.7785 26.4293C61.0664 26.7577 61.433 27.0028 61.8783 27.1648C62.3281 27.3222 62.8206 27.4009 63.3559 27.4009C63.9452 27.4009 64.4692 27.3087 64.928 27.1243C65.3913 26.9354 65.7557 26.6745 66.021 26.3416C66.2864 26.0043 66.4191 25.6107 66.4191 25.1609C66.4191 24.7515 66.3022 24.4164 66.0683 24.1555C65.8389 23.8946 65.5262 23.6787 65.1304 23.5078C64.7391 23.3369 64.296 23.1862 63.8012 23.0558L62.1684 22.6104C61.0619 22.3091 60.1847 21.866 59.537 21.2812C58.8938 20.6965 58.5722 19.9228 58.5722 18.9602C58.5722 18.1641 58.7881 17.4691 59.2199 16.8754C59.6517 16.2816 60.2365 15.8205 60.9742 15.4922C61.7119 15.1593 62.544 14.9929 63.4706 14.9929C64.4062 14.9929 65.2316 15.1571 65.9468 15.4854C66.6665 15.8138 67.2333 16.2659 67.6471 16.8416C68.0609 17.4129 68.2768 18.0696 68.2948 18.8118H66.2842ZM72.0311 29H69.818L74.7907 15.1818H77.1994L82.1721 29H79.959L76.0524 17.6918H75.9444L72.0311 29ZM72.4022 23.5888H79.5811V25.343H72.4022V23.5888ZM86.2524 15.1818V29H84.1675V15.1818H86.2524Z" fill="#DC0000"/>
<path d="M39 36L55.4545 9H22.5455L39 36Z" fill="#DC0000"/>
<path d="M0 21C0 12.7157 6.71573 6 15 6H39V37H15C6.71573 37 0 30.2843 0 22V21Z" fill="#DC0000"/>
<path d="M18.9734 30.1989C17.8607 30.1989 16.9042 30 16.104 29.6023C15.3039 29.2045 14.7144 28.6577 14.3356 27.9616C13.9568 27.2656 13.8361 26.4678 13.9734 25.5682H17.8086C17.7423 26.0653 17.8701 26.4654 18.1921 26.7685C18.5141 27.0668 18.9355 27.2159 19.4563 27.2159C19.8683 27.2159 20.2423 27.1307 20.5785 26.9602C20.9147 26.785 21.1964 26.5412 21.4237 26.2287C21.6509 25.9115 21.8001 25.5398 21.8711 25.1136C21.9421 24.6875 21.9161 24.3182 21.793 24.0057C21.6699 23.6884 21.4686 23.4446 21.1893 23.2741C20.9099 23.099 20.569 23.0114 20.1665 23.0114C19.7451 23.0114 19.3427 23.1132 18.9592 23.3168C18.5756 23.5156 18.2679 23.7926 18.0359 24.1477L14.6836 23.4659L16.587 15.4545H26.3597L25.8484 18.608H19.3143L18.4904 21.8182H18.5756C18.8787 21.3778 19.3332 21.0133 19.9393 20.7244C20.5501 20.4309 21.2224 20.2841 21.9563 20.2841C22.8228 20.2841 23.5614 20.4853 24.1722 20.8878C24.783 21.2902 25.2257 21.8466 25.5004 22.5568C25.775 23.267 25.8342 24.0814 25.6779 25C25.5217 26.0133 25.1381 26.9105 24.5273 27.6918C23.9165 28.473 23.1353 29.0862 22.1836 29.5312C21.2319 29.9763 20.1618 30.1989 18.9734 30.1989ZM32.3523 30.1989C31.2396 30.1989 30.2831 30 29.483 29.6023C28.6828 29.2045 28.0933 28.6577 27.7145 27.9616C27.3357 27.2656 27.215 26.4678 27.3523 25.5682H31.1875C31.1212 26.0653 31.2491 26.4654 31.571 26.7685C31.893 27.0668 32.3144 27.2159 32.8352 27.2159C33.2472 27.2159 33.6212 27.1307 33.9574 26.9602C34.2936 26.785 34.5753 26.5412 34.8026 26.2287C35.0298 25.9115 35.179 25.5398 35.25 25.1136C35.321 24.6875 35.295 24.3182 35.1719 24.0057C35.0488 23.6884 34.8475 23.4446 34.5682 23.2741C34.2888 23.099 33.9479 23.0114 33.5455 23.0114C33.1241 23.0114 32.7216 23.1132 32.3381 23.3168C31.9545 23.5156 31.6468 23.7926 31.4148 24.1477L28.0625 23.4659L29.9659 15.4545H39.7386L39.2273 18.608H32.6932L31.8693 21.8182H31.9545C32.2576 21.3778 32.7121 21.0133 33.3182 20.7244C33.929 20.4309 34.6013 20.2841 35.3352 20.2841C36.2017 20.2841 36.9403 20.4853 37.5511 20.8878C38.1619 21.2902 38.6046 21.8466 38.8793 22.5568C39.1539 23.267 39.2131 24.0814 39.0568 25C38.9006 26.0133 38.517 26.9105 37.9062 27.6918C37.2955 28.473 36.5142 29.0862 35.5625 29.5312C34.6108 29.9763 33.5407 30.1989 32.3523 30.1989Z" fill="black"/>
<line x1="38.567" y1="36.6785" x2="54.6915" y2="8.74999" stroke="#DC0000"/>
</svg>
