<svg width="100" height="37" viewBox="0 0 100 37" fill="none" xmlns="http://www.w3.org/2000/svg">
<rect x="1.5" y="7.5" width="97" height="28" rx="13.5" fill="black" stroke="#005AFF" stroke-width="3"/>
<path d="M62.2217 19.8118C62.1497 19.1731 61.8528 18.6783 61.3311 18.3274C60.8093 17.9721 60.1526 17.7944 59.3609 17.7944C58.7941 17.7944 58.3038 17.8844 57.89 18.0643C57.4762 18.2397 57.1546 18.4826 56.9252 18.793C56.7003 19.0988 56.5878 19.4474 56.5878 19.8388C56.5878 20.1671 56.6643 20.4505 56.8172 20.6889C56.9746 20.9273 57.1793 21.1275 57.4312 21.2894C57.6876 21.4469 57.962 21.5795 58.2544 21.6875C58.5467 21.791 58.8279 21.8764 59.0977 21.9439L60.4472 22.2947C60.888 22.4027 61.3401 22.5489 61.8034 22.7333C62.2667 22.9177 62.6962 23.1606 63.0921 23.462C63.4879 23.7634 63.8073 24.1367 64.0502 24.582C64.2976 25.0273 64.4213 25.5604 64.4213 26.1811C64.4213 26.9638 64.2188 27.6587 63.814 28.266C63.4137 28.8732 62.8312 29.3523 62.0665 29.7031C61.3063 30.054 60.3865 30.2294 59.3069 30.2294C58.2723 30.2294 57.3772 30.0652 56.6215 29.7369C55.8659 29.4085 55.2744 28.9429 54.847 28.3402C54.4197 27.733 54.1836 27.0133 54.1386 26.1811H56.2302C56.2707 26.6804 56.4326 27.0965 56.716 27.4293C57.0039 27.7577 57.3705 28.0028 57.8158 28.1648C58.2656 28.3222 58.7581 28.4009 59.2934 28.4009C59.8827 28.4009 60.4067 28.3087 60.8655 28.1243C61.3288 27.9354 61.6932 27.6745 61.9585 27.3416C62.2239 27.0043 62.3566 26.6107 62.3566 26.1609C62.3566 25.7515 62.2397 25.4164 62.0058 25.1555C61.7764 24.8946 61.4637 24.6787 61.0679 24.5078C60.6766 24.3369 60.2335 24.1862 59.7387 24.0558L58.1059 23.6104C56.9994 23.3091 56.1222 22.866 55.4745 22.2812C54.8313 21.6965 54.5097 20.9228 54.5097 19.9602C54.5097 19.1641 54.7256 18.4691 55.1574 17.8754C55.5892 17.2816 56.174 16.8205 56.9117 16.4922C57.6494 16.1593 58.4815 15.9929 59.4081 15.9929C60.3437 15.9929 61.1691 16.1571 61.8843 16.4854C62.604 16.8138 63.1708 17.2659 63.5846 17.8416C63.9984 18.4129 64.2143 19.0696 64.2323 19.8118H62.2217ZM67.9686 30H65.7555L70.7282 16.1818H73.1369L78.1096 30H75.8965L71.9899 18.6918H71.8819L67.9686 30ZM68.3397 24.5888H75.5186V26.343H68.3397V24.5888ZM80.105 30V16.1818H85.0305C86.101 16.1818 86.9894 16.3662 87.6956 16.7351C88.4063 17.1039 88.9371 17.6145 89.2879 18.2667C89.6388 18.9144 89.8142 19.6634 89.8142 20.5135C89.8142 21.3591 89.6365 22.1036 89.2812 22.7468C88.9303 23.3855 88.3995 23.8826 87.6888 24.2379C86.9826 24.5933 86.0943 24.771 85.0237 24.771H81.2925V22.9762H84.8348C85.5095 22.9762 86.0583 22.8795 86.4811 22.6861C86.9084 22.4927 87.221 22.2115 87.4189 21.8427C87.6169 21.4738 87.7158 21.0308 87.7158 20.5135C87.7158 19.9917 87.6146 19.5397 87.4122 19.1573C87.2143 18.775 86.9017 18.4826 86.4743 18.2802C86.0515 18.0733 85.496 17.9698 84.8078 17.9698H82.1899V30H80.105ZM86.9264 23.7656L90.3405 30H87.9655L84.6189 23.7656H86.9264Z" fill="#005AFF"/>
<path d="M39 36L55.4545 9H22.5455L39 36Z" fill="#005AFF"/>
<path d="M0 21C0 12.7157 6.71573 6 15 6H39V37H15C6.71573 37 0 30.2843 0 22V21Z" fill="#005AFF"/>
<path d="M20.092 30L20.5607 27.1591L26.7397 22.6705C27.1516 22.3722 27.5067 22.0928 27.805 21.8324C28.1081 21.5672 28.3519 21.295 28.5366 21.0156C28.7212 20.7363 28.842 20.4261 28.8988 20.0852C28.9603 19.7112 28.9319 19.3916 28.8136 19.1264C28.6999 18.8565 28.5153 18.6506 28.2596 18.5085C28.0039 18.3665 27.6961 18.2955 27.3363 18.2955C26.9717 18.2955 26.6379 18.3688 26.3349 18.5156C26.0318 18.6624 25.7785 18.8778 25.5749 19.1619C25.3761 19.446 25.2435 19.7917 25.1772 20.1989H21.4272C21.5977 19.1761 21.9741 18.2955 22.5565 17.5568C23.1436 16.8182 23.887 16.25 24.7866 15.8523C25.6909 15.4545 26.7066 15.2557 27.8335 15.2557C28.9982 15.2557 29.9783 15.4427 30.7738 15.8168C31.5692 16.1861 32.1445 16.7069 32.4996 17.3793C32.8595 18.0516 32.9613 18.84 32.805 19.7443C32.7103 20.303 32.4996 20.857 32.1729 21.4062C31.851 21.9555 31.3325 22.5663 30.6175 23.2386C29.9073 23.9062 28.9225 24.7017 27.663 25.625L26.1147 26.7614L26.1005 26.8466H31.7823L31.2567 30H20.092Z" fill="black"/>
<line x1="38.567" y1="36.6785" x2="54.6915" y2="8.74999" stroke="#005AFF"/>
</svg>
