<svg width="100" height="37" viewBox="0 0 100 37" fill="none" xmlns="http://www.w3.org/2000/svg">
<rect x="1.5" y="7.5" width="97" height="28" rx="13.5" fill="black" stroke="#006F62" stroke-width="3"/>
<path d="M63.1299 18.8118C63.0579 18.1731 62.761 17.6783 62.2393 17.3274C61.7175 16.9721 61.0608 16.7944 60.2691 16.7944C59.7023 16.7944 59.212 16.8844 58.7982 17.0643C58.3844 17.2397 58.0628 17.4826 57.8334 17.793C57.6085 18.0988 57.496 18.4474 57.496 18.8388C57.496 19.1671 57.5725 19.4505 57.7254 19.6889C57.8828 19.9273 58.0875 20.1275 58.3394 20.2894C58.5958 20.4469 58.8702 20.5795 59.1626 20.6875C59.4549 20.791 59.7361 20.8764 60.0059 20.9439L61.3554 21.2947C61.7962 21.4027 62.2483 21.5489 62.7116 21.7333C63.1749 21.9177 63.6044 22.1606 64.0003 22.462C64.3961 22.7634 64.7155 23.1367 64.9584 23.582C65.2058 24.0273 65.3295 24.5604 65.3295 25.1811C65.3295 25.9638 65.127 26.6587 64.7222 27.266C64.3219 27.8732 63.7394 28.3523 62.9747 28.7031C62.2145 29.054 61.2947 29.2294 60.2151 29.2294C59.1805 29.2294 58.2854 29.0652 57.5297 28.7369C56.7741 28.4085 56.1826 27.9429 55.7552 27.3402C55.3279 26.733 55.0918 26.0133 55.0468 25.1811H57.1384C57.1789 25.6804 57.3408 26.0965 57.6242 26.4293C57.9121 26.7577 58.2787 27.0028 58.724 27.1648C59.1738 27.3222 59.6663 27.4009 60.2016 27.4009C60.7909 27.4009 61.3149 27.3087 61.7737 27.1243C62.237 26.9354 62.6014 26.6745 62.8667 26.3416C63.1321 26.0043 63.2648 25.6107 63.2648 25.1609C63.2648 24.7515 63.1479 24.4164 62.914 24.1555C62.6846 23.8946 62.372 23.6787 61.9761 23.5078C61.5848 23.3369 61.1417 23.1862 60.6469 23.0558L59.0141 22.6104C57.9076 22.3091 57.0305 21.866 56.3827 21.2812C55.7395 20.6965 55.4179 19.9228 55.4179 18.9602C55.4179 18.1641 55.6338 17.4691 56.0656 16.8754C56.4974 16.2816 57.0822 15.8205 57.8199 15.4922C58.5576 15.1593 59.3897 14.9929 60.3163 14.9929C61.2519 14.9929 62.0773 15.1571 62.7925 15.4854C63.5122 15.8138 64.079 16.2659 64.4928 16.8416C64.9066 17.4129 65.1225 18.0696 65.1405 18.8118H63.1299ZM67.1394 16.9766V15.1818H77.8336V16.9766H73.5222V29H71.4441V16.9766H67.1394ZM80.1968 29V15.1818H85.1222C86.1928 15.1818 87.0812 15.3662 87.7874 15.7351C88.4981 16.1039 89.0289 16.6145 89.3797 17.2667C89.7306 17.9144 89.906 18.6634 89.906 19.5135C89.906 20.3591 89.7283 21.1036 89.373 21.7468C89.0221 22.3855 88.4913 22.8826 87.7806 23.2379C87.0744 23.5933 86.1861 23.771 85.1155 23.771H81.3843V21.9762H84.9266C85.6013 21.9762 86.1501 21.8795 86.5729 21.6861C87.0002 21.4927 87.3128 21.2115 87.5107 20.8427C87.7087 20.4738 87.8076 20.0308 87.8076 19.5135C87.8076 18.9917 87.7064 18.5397 87.504 18.1573C87.3061 17.775 86.9935 17.4826 86.5661 17.2802C86.1433 17.0733 85.5878 16.9698 84.8996 16.9698H82.2817V29H80.1968ZM87.0182 22.7656L90.4323 29H88.0573L84.7107 22.7656H87.0182Z" fill="#006F62"/>
<path d="M39 36L55.4545 9H22.5455L39 36Z" fill="#006F62"/>
<path d="M0 21C0 12.7157 6.71573 6 15 6H39V37H15C6.71573 37 0 30.2843 0 22V21Z" fill="#006F62"/>
<path d="M23.6589 15.4545L21.2441 30H17.2953L19.1135 19.0909H19.0282L15.5339 20.9943L16.0737 17.642L20.0225 15.4545H23.6589ZM30.1113 30.1989C28.9418 30.1989 27.9238 30.0189 27.0574 29.6591C26.1956 29.2945 25.5517 28.7997 25.1255 28.1747C24.6994 27.545 24.5526 26.8371 24.6852 26.0511C24.7894 25.4545 25.0332 24.9077 25.4167 24.4105C25.805 23.9134 26.2832 23.4991 26.8514 23.1676C27.4196 22.8362 28.0233 22.6231 28.6625 22.5284V22.4148C27.8765 22.2727 27.2633 21.9034 26.823 21.3068C26.3874 20.7102 26.2335 20.0095 26.3613 19.2045C26.4844 18.4422 26.8348 17.7652 27.4125 17.1733C27.9949 16.5767 28.7335 16.108 29.6284 15.767C30.528 15.4261 31.5128 15.2557 32.5829 15.2557C33.653 15.2557 34.5787 15.4285 35.3599 15.7741C36.1412 16.1151 36.7235 16.5838 37.1071 17.1804C37.4906 17.7723 37.6208 18.447 37.4977 19.2045C37.3651 20.0189 36.984 20.7221 36.3542 21.3139C35.7245 21.9058 34.9788 22.2727 34.117 22.4148V22.5284C34.7278 22.6231 35.2605 22.8362 35.715 23.1676C36.1743 23.4943 36.5128 23.9062 36.7306 24.4034C36.9485 24.9006 37.0053 25.4498 36.9011 26.0511C36.7685 26.8324 36.3874 27.5379 35.7576 28.1676C35.1279 28.7926 34.323 29.2874 33.3429 29.652C32.3675 30.0166 31.2903 30.1989 30.1113 30.1989ZM30.5659 27.4716C30.9399 27.4716 31.2832 27.3958 31.5957 27.2443C31.9082 27.0881 32.1686 26.8774 32.377 26.6122C32.59 26.3423 32.725 26.0417 32.7818 25.7102C32.8386 25.3693 32.8055 25.0687 32.6824 24.8082C32.5592 24.5478 32.3627 24.3442 32.0929 24.1974C31.8277 24.0507 31.5081 23.9773 31.1341 23.9773C30.76 23.9773 30.4144 24.053 30.0971 24.2045C29.7846 24.3513 29.5242 24.5549 29.3159 24.8153C29.1075 25.0758 28.975 25.3741 28.9181 25.7102C28.8613 26.0464 28.8945 26.3494 29.0176 26.6193C29.1454 26.8845 29.3443 27.0928 29.6142 27.2443C29.8841 27.3958 30.2013 27.4716 30.5659 27.4716ZM31.5886 21.25C31.92 21.25 32.2231 21.1813 32.4977 21.044C32.777 20.902 33.0091 20.7102 33.1937 20.4688C33.3784 20.2273 33.4967 19.9574 33.5488 19.6591C33.6009 19.3513 33.5749 19.0814 33.4707 18.8494C33.3665 18.6127 33.1984 18.428 32.9664 18.2955C32.7344 18.1629 32.4551 18.0966 32.1284 18.0966C31.8017 18.0966 31.4963 18.1652 31.2122 18.3026C30.9328 18.4351 30.6961 18.6198 30.502 18.8565C30.3126 19.0885 30.1918 19.3561 30.1397 19.6591C30.0877 19.9621 30.1161 20.2344 30.225 20.4759C30.3339 20.7126 30.5043 20.902 30.7363 21.044C30.9731 21.1813 31.2572 21.25 31.5886 21.25Z" fill="black"/>
<line x1="38.567" y1="36.6785" x2="54.6915" y2="8.74999" stroke="#006F62"/>
</svg>
