<svg width="100" height="37" viewBox="0 0 100 37" fill="none" xmlns="http://www.w3.org/2000/svg">
<rect x="1.5" y="7.5" width="97" height="28" rx="13.5" fill="black" stroke="#2B4562" stroke-width="3"/>
<path d="M54.0305 17.9766V16.1818H64.7247V17.9766H60.4133V30H58.3352V17.9766H54.0305ZM75.9739 16.1818H78.0656V25.2702C78.0656 26.2373 77.8384 27.0942 77.3841 27.8409C76.9298 28.5831 76.2911 29.1679 75.4679 29.5952C74.6448 30.018 73.6799 30.2294 72.5734 30.2294C71.4713 30.2294 70.5087 30.018 69.6856 29.5952C68.8624 29.1679 68.2237 28.5831 67.7694 27.8409C67.3151 27.0942 67.0879 26.2373 67.0879 25.2702V16.1818H69.1728V25.1016C69.1728 25.7268 69.31 26.2823 69.5844 26.7681C69.8633 27.2539 70.2569 27.6362 70.7651 27.9151C71.2734 28.1895 71.8762 28.3267 72.5734 28.3267C73.2751 28.3267 73.8801 28.1895 74.3884 27.9151C74.9011 27.6362 75.2925 27.2539 75.5624 26.7681C75.8368 26.2823 75.9739 25.7268 75.9739 25.1016V16.1818ZM88.6333 19.8118C88.5613 19.1731 88.2645 18.6783 87.7427 18.3274C87.2209 17.9721 86.5642 17.7944 85.7725 17.7944C85.2057 17.7944 84.7155 17.8844 84.3016 18.0643C83.8878 18.2397 83.5662 18.4826 83.3368 18.793C83.1119 19.0988 82.9994 19.4474 82.9994 19.8388C82.9994 20.1671 83.0759 20.4505 83.2288 20.6889C83.3863 20.9273 83.5909 21.1275 83.8428 21.2894C84.0992 21.4469 84.3736 21.5795 84.666 21.6875C84.9583 21.791 85.2395 21.8764 85.5094 21.9439L86.8588 22.2947C87.2996 22.4027 87.7517 22.5489 88.215 22.7333C88.6783 22.9177 89.1079 23.1606 89.5037 23.462C89.8995 23.7634 90.2189 24.1367 90.4618 24.582C90.7092 25.0273 90.8329 25.5604 90.8329 26.1811C90.8329 26.9638 90.6305 27.6587 90.2256 28.266C89.8253 28.8732 89.2428 29.3523 88.4781 29.7031C87.7179 30.054 86.7981 30.2294 85.7185 30.2294C84.684 30.2294 83.7888 30.0652 83.0332 29.7369C82.2775 29.4085 81.686 28.9429 81.2587 28.3402C80.8313 27.733 80.5952 27.0133 80.5502 26.1811H82.6418C82.6823 26.6804 82.8442 27.0965 83.1276 27.4293C83.4155 27.7577 83.7821 28.0028 84.2274 28.1648C84.6772 28.3222 85.1698 28.4009 85.705 28.4009C86.2943 28.4009 86.8183 28.3087 87.2771 28.1243C87.7404 27.9354 88.1048 27.6745 88.3702 27.3416C88.6356 27.0043 88.7682 26.6107 88.7682 26.1609C88.7682 25.7515 88.6513 25.4164 88.4174 25.1555C88.188 24.8946 87.8754 24.6787 87.4795 24.5078C87.0882 24.3369 86.6451 24.1862 86.1503 24.0558L84.5175 23.6104C83.411 23.3091 82.5339 22.866 81.8861 22.2812C81.2429 21.6965 80.9213 20.9228 80.9213 19.9602C80.9213 19.1641 81.1372 18.4691 81.569 17.8754C82.0008 17.2816 82.5856 16.8205 83.3233 16.4922C84.061 16.1593 84.8931 15.9929 85.8197 15.9929C86.7553 15.9929 87.5807 16.1571 88.2959 16.4854C89.0156 16.8138 89.5824 17.2659 89.9962 17.8416C90.4101 18.4129 90.626 19.0696 90.644 19.8118H88.6333Z" fill="#2B4562"/>
<path d="M39 36L55.4545 9H22.5455L39 36Z" fill="#2B4562"/>
<path d="M0 21C0 12.7157 6.71573 6 15 6H39V37H15C6.71573 37 0 30.2843 0 22V21Z" fill="#2B4562"/>
<path d="M13.1271 30L13.5959 27.1591L19.7749 22.6705C20.1868 22.3722 20.5419 22.0928 20.8402 21.8324C21.1432 21.5672 21.3871 21.295 21.5717 21.0156C21.7564 20.7363 21.8771 20.4261 21.9339 20.0852C21.9955 19.7112 21.9671 19.3916 21.8487 19.1264C21.7351 18.8565 21.5504 18.6506 21.2947 18.5085C21.0391 18.3665 20.7313 18.2955 20.3714 18.2955C20.0069 18.2955 19.6731 18.3688 19.37 18.5156C19.067 18.6624 18.8137 18.8778 18.6101 19.1619C18.4112 19.446 18.2786 19.7917 18.2124 20.1989H14.4624C14.6328 19.1761 15.0092 18.2955 15.5916 17.5568C16.1787 16.8182 16.9221 16.25 17.8217 15.8523C18.7261 15.4545 19.7417 15.2557 20.8686 15.2557C22.0334 15.2557 23.0135 15.4427 23.8089 15.8168C24.6044 16.1861 25.1797 16.7069 25.5348 17.3793C25.8946 18.0516 25.9964 18.84 25.8402 19.7443C25.7455 20.303 25.5348 20.857 25.2081 21.4062C24.8861 21.9555 24.3677 22.5663 23.6527 23.2386C22.9425 23.9062 21.9576 24.7017 20.6982 25.625L19.1499 26.7614L19.1357 26.8466H24.8175L24.2919 30H13.1271ZM26.0568 30L26.5256 27.1591L32.7045 22.6705C33.1165 22.3722 33.4716 22.0928 33.7699 21.8324C34.0729 21.5672 34.3168 21.295 34.5014 21.0156C34.6861 20.7363 34.8068 20.4261 34.8636 20.0852C34.9252 19.7112 34.8968 19.3916 34.7784 19.1264C34.6648 18.8565 34.4801 18.6506 34.2244 18.5085C33.9688 18.3665 33.661 18.2955 33.3011 18.2955C32.9366 18.2955 32.6027 18.3688 32.2997 18.5156C31.9967 18.6624 31.7434 18.8778 31.5398 19.1619C31.3409 19.446 31.2083 19.7917 31.142 20.1989H27.392C27.5625 19.1761 27.9389 18.2955 28.5213 17.5568C29.1084 16.8182 29.8518 16.25 30.7514 15.8523C31.6558 15.4545 32.6714 15.2557 33.7983 15.2557C34.9631 15.2557 35.9432 15.4427 36.7386 15.8168C37.5341 16.1861 38.1094 16.7069 38.4645 17.3793C38.8243 18.0516 38.9261 18.84 38.7699 19.7443C38.6752 20.303 38.4645 20.857 38.1378 21.4062C37.8158 21.9555 37.2973 22.5663 36.5824 23.2386C35.8722 23.9062 34.8873 24.7017 33.6278 25.625L32.0795 26.7614L32.0653 26.8466H37.7472L37.2216 30H26.0568Z" fill="black"/>
<line x1="38.567" y1="36.6785" x2="54.6915" y2="8.74999" stroke="#2B4562"/>
</svg>
