<svg width="100" height="31" viewBox="0 0 100 31" fill="none" xmlns="http://www.w3.org/2000/svg">
<rect x="1.5" y="1.5" width="97" height="28" rx="13.5" fill="black" stroke="#EF00D7" stroke-width="3"/>
<path d="M75.8997 10.1818H77.9913V19.2702C77.9913 20.2373 77.7642 21.0942 77.3099 21.8409C76.8556 22.5831 76.2168 23.1679 75.3937 23.5952C74.5705 24.018 73.6057 24.2294 72.4992 24.2294C71.3971 24.2294 70.4345 24.018 69.6114 23.5952C68.7882 23.1679 68.1495 22.5831 67.6952 21.8409C67.2409 21.0942 67.0137 20.2373 67.0137 19.2702V10.1818H69.0986V19.1016C69.0986 19.7268 69.2358 20.2823 69.5102 20.7681C69.789 21.2539 70.1826 21.6362 70.6909 21.9151C71.1992 22.1895 71.802 22.3267 72.4992 22.3267C73.2009 22.3267 73.8059 22.1895 74.3141 21.9151C74.8269 21.6362 75.2183 21.2539 75.4881 20.7681C75.7625 20.2823 75.8997 19.7268 75.8997 19.1016V10.1818Z" fill="#EF00D7"/>
<path d="M0 15C0 6.71573 6.71573 0 15 0H39V31H15C6.71573 31 0 24.2843 0 16V15Z" fill="#EF00D7"/>
<path d="M25.5305 24.3977C24.2048 24.3977 23.1087 24.0947 22.2422 23.4886C21.3757 22.8778 20.7768 22.0019 20.4453 20.8608C20.1139 19.7197 20.0855 18.3513 20.3601 16.7557C20.6347 15.1553 21.1248 13.7964 21.8303 12.679C22.5405 11.5616 23.4212 10.7116 24.4723 10.1293C25.5282 9.54687 26.7143 9.25568 28.0305 9.25568C29.3468 9.25568 30.4358 9.54687 31.2976 10.1293C32.1593 10.7116 32.7583 11.5616 33.0945 12.679C33.4306 13.7917 33.4661 15.1506 33.201 16.7557C32.9358 18.3561 32.4482 19.7268 31.7379 20.8679C31.0324 22.009 30.1494 22.8826 29.0888 23.4886C28.0329 24.0947 26.8468 24.3977 25.5305 24.3977ZM26.0703 21.1875C26.7521 21.1875 27.3629 20.8324 27.9027 20.1222C28.4472 19.4072 28.8497 18.285 29.1101 16.7557C29.2805 15.7614 29.3208 14.947 29.2308 14.3125C29.1409 13.6733 28.9467 13.2022 28.6484 12.8991C28.3501 12.5914 27.9737 12.4375 27.5192 12.4375C26.8374 12.4375 26.2171 12.7855 25.6584 13.4815C25.1044 14.1728 24.7019 15.2642 24.451 16.7557C24.2805 17.7784 24.2427 18.6165 24.3374 19.2699C24.4321 19.9233 24.6309 20.4062 24.9339 20.7188C25.237 21.0312 25.6158 21.1875 26.0703 21.1875Z" fill="black"/>
<path d="M54 3L39 28.5V3H54Z" fill="#EF00D7" stroke="#EF00D7"/>
</svg>
