<svg width="100" height="31" viewBox="0 0 100 31" fill="none" xmlns="http://www.w3.org/2000/svg">
<g id="VER Name">
<rect id="Rectangle 3" x="1.5" y="1.5" width="97" height="28" rx="13.5" fill="black" stroke="#0600EF" stroke-width="3"/>
<path id="VER" d="M56.7268 10.1818L60.5727 21.4361H60.7279L64.5738 10.1818H66.8273L61.8547 24H59.4459L54.4733 10.1818H56.7268ZM68.8228 24V10.1818H77.4862V11.9766H70.9077V16.1868H77.0341V17.9748H70.9077V22.2053H77.5671V24H68.8228ZM80.271 24V10.1818H85.1965C86.267 10.1818 87.1554 10.3662 87.8616 10.7351C88.5723 11.1039 89.1031 11.6145 89.4539 12.2667C89.8048 12.9144 89.9802 13.6634 89.9802 14.5135C89.9802 15.3591 89.8025 16.1036 89.4472 16.7468C89.0963 17.3855 88.5655 17.8826 87.8548 18.2379C87.1486 18.5933 86.2603 18.771 85.1897 18.771H81.4585V16.9762H85.0008C85.6755 16.9762 86.2243 16.8795 86.6471 16.6861C87.0744 16.4927 87.387 16.2115 87.585 15.8427C87.7829 15.4738 87.8818 15.0308 87.8818 14.5135C87.8818 13.9917 87.7806 13.5397 87.5782 13.1573C87.3803 12.775 87.0677 12.4826 86.6404 12.2802C86.2175 12.0733 85.662 11.9698 84.9738 11.9698H82.3559V24H80.271ZM87.0924 17.7656L90.5065 24H88.1315L84.7849 17.7656H87.0924Z" fill="#0600EF"/>
<path id="Rectangle 6" d="M0 15C0 6.71573 6.71573 0 15 0H39V31H15C6.71573 31 0 24.2843 0 16V15Z" fill="#0600EF"/>
<path id="1" d="M31.0437 9.45455L28.6289 24H24.68L26.4982 13.0909H26.413L22.9187 14.9943L23.4585 11.642L27.4073 9.45455H31.0437Z" fill="black"/>
<path id="Vector 1" d="M54 3L39 28.5V3H54Z" fill="#0600EF" stroke="#0600EF"/>
</g>
</svg>
