<svg width="100" height="37" viewBox="0 0 100 37" fill="none" xmlns="http://www.w3.org/2000/svg">
<rect x="1.5" y="7.5" width="97" height="28" rx="13.5" fill="black" stroke="#900000" stroke-width="3"/>
<path d="M53.2411 30V28.6101L60.5078 17.9766H53.1804V16.1818H63.0582V17.5717L55.7915 28.2053H63.1189V30H53.2411ZM65.7334 30V16.1818H67.8183V22.1868H74.7072V16.1818H76.7988V30H74.7072V23.9748H67.8183V30H65.7334ZM91.8382 23.0909C91.8382 24.5663 91.5683 25.8348 91.0285 26.8963C90.4888 27.9534 89.7488 28.7675 88.8087 29.3388C87.8731 29.9055 86.8093 30.1889 85.6173 30.1889C84.4208 30.1889 83.3525 29.9055 82.4124 29.3388C81.4768 28.7675 80.7391 27.9511 80.1994 26.8896C79.6596 25.828 79.3897 24.5618 79.3897 23.0909C79.3897 21.6155 79.6596 20.3493 80.1994 19.2923C80.7391 18.2307 81.4768 17.4165 82.4124 16.8498C83.3525 16.2785 84.4208 15.9929 85.6173 15.9929C86.8093 15.9929 87.8731 16.2785 88.8087 16.8498C89.7488 17.4165 90.4888 18.2307 91.0285 19.2923C91.5683 20.3493 91.8382 21.6155 91.8382 23.0909ZM89.7736 23.0909C89.7736 21.9664 89.5914 21.0195 89.2271 20.2504C88.8672 19.4767 88.3724 18.8919 87.7427 18.4961C87.1174 18.0958 86.409 17.8956 85.6173 17.8956C84.8212 17.8956 84.1105 18.0958 83.4852 18.4961C82.86 18.8919 82.3652 19.4767 82.0008 20.2504C81.641 21.0195 81.4611 21.9664 81.4611 23.0909C81.4611 24.2154 81.641 25.1645 82.0008 25.9382C82.3652 26.7074 82.86 27.2921 83.4852 27.6925C84.1105 28.0883 84.8212 28.2862 85.6173 28.2862C86.409 28.2862 87.1174 28.0883 87.7427 27.6925C88.3724 27.2921 88.8672 26.7074 89.2271 25.9382C89.5914 25.1645 89.7736 24.2154 89.7736 23.0909Z" fill="#900000"/>
<path d="M39 36L55.4545 9H22.5455L39 36Z" fill="#900000"/>
<path d="M0 21C0 12.7157 6.71573 6 15 6H39V37H15C6.71573 37 0 30.2843 0 22V21Z" fill="#900000"/>
<path d="M13.2267 30L13.6955 27.1591L19.8745 22.6705C20.2864 22.3722 20.6415 22.0928 20.9398 21.8324C21.2428 21.5672 21.4867 21.295 21.6713 21.0156C21.856 20.7363 21.9767 20.4261 22.0336 20.0852C22.0951 19.7112 22.0667 19.3916 21.9483 19.1264C21.8347 18.8565 21.65 18.6506 21.3944 18.5085C21.1387 18.3665 20.8309 18.2955 20.4711 18.2955C20.1065 18.2955 19.7727 18.3688 19.4696 18.5156C19.1666 18.6624 18.9133 18.8778 18.7097 19.1619C18.5108 19.446 18.3783 19.7917 18.312 20.1989H14.562C14.7324 19.1761 15.1088 18.2955 15.6912 17.5568C16.2783 16.8182 17.0217 16.25 17.9213 15.8523C18.8257 15.4545 19.8413 15.2557 20.9682 15.2557C22.133 15.2557 23.1131 15.4427 23.9086 15.8168C24.704 16.1861 25.2793 16.7069 25.6344 17.3793C25.9943 18.0516 26.0961 18.84 25.9398 19.7443C25.8451 20.303 25.6344 20.857 25.3077 21.4062C24.9857 21.9555 24.4673 22.5663 23.7523 23.2386C23.0421 23.9062 22.0572 24.7017 20.7978 25.625L19.2495 26.7614L19.2353 26.8466H24.9171L24.3915 30H13.2267ZM26.0712 27.7273L26.5826 24.6591L33.9689 15.4545H36.753L36.0712 19.5455H34.4803L30.503 24.5455L30.4746 24.6591H39.111L38.5996 27.7273H26.0712ZM32.7757 30L33.3155 26.7898L33.628 25.4545L35.2757 15.4545H38.9689L36.5542 30H32.7757Z" fill="black"/>
<line x1="38.567" y1="36.6785" x2="54.6915" y2="8.74999" stroke="#900000"/>
</svg>
